<svg aria-hidden="true" style="position: absolute; width: 0; height: 0; overflow: hidden;" version="1.1" xmlns="http://www.w3.org/2000/svg" xmlns:xlink="http://www.w3.org/1999/xlink">
<defs>
<symbol id="icon-fax" viewBox="0 0 24 24">
<path d="M19.5 24h-15.75c-0.829 0-1.5-0.672-1.5-1.5v-18c0-0.829 0.671-1.5 1.5-1.5v18c0 0.828 0.672 1.5 1.5 1.5h3c0.829 0 1.5-0.672 1.5-1.5v-18h9.75c0.829 0 1.5 0.672 1.5 1.5v18c0 0.828-0.671 1.5-1.5 1.5zM15.75 21.75h1.5v-1.5h-1.5v1.5zM15.75 19.5h1.5v-1.5h-1.5v1.5zM15.75 17.25h1.5v-1.5h-1.5v1.5zM15.75 15h1.5v-1.5h-1.5v1.5zM13.5 21.75h1.5v-1.5h-1.5v1.5zM13.5 19.5h1.5v-1.5h-1.5v1.5zM13.5 17.25h1.5v-1.5h-1.5v1.5zM13.5 15h1.5v-1.5h-1.5v1.5zM19.5 5.25c0-0.415-0.335-0.75-0.75-0.75h-6.75c-0.414 0-0.75 0.335-0.75 0.75v3c0 0.414 0.336 0.75 0.75 0.75h6.75c0.415 0 0.75-0.336 0.75-0.75v-3zM19.5 13.5h-1.5v1.5h1.5v-1.5zM19.5 15.75h-1.5v1.5h1.5v-1.5zM19.5 18h-1.5v1.5h1.5v-1.5zM19.5 20.25h-1.5v1.5h1.5v-1.5zM8.25 21.75h-3c-0.414 0-0.75-0.335-0.75-0.75v-18.75c0-0.415 0.336-0.75 0.75-0.75h1.454v-1.5h0.796v1.5h0.75c0.414 0 0.75 0.335 0.75 0.75v18.75c0 0.415-0.336 0.75-0.75 0.75z"></path>
</symbol>
<symbol id="icon-player" viewBox="0 0 24 24">
<path d="M8.016 5.016l10.969 6.984-10.969 6.984v-13.969z"></path>
</symbol>
<symbol id="icon-phone" viewBox="0 0 24 24">
<path d="M23 16.92c0.016-0.714-0.236-1.404-0.673-1.943-0.46-0.566-1.129-0.967-1.925-1.080-0.8-0.098-1.695-0.314-2.586-0.646-0.433-0.159-0.893-0.218-1.344-0.174-0.663 0.064-1.307 0.349-1.819 0.855l-0.72 0.72c-1.77-1.117-3.36-2.667-4.583-4.589l0.726-0.726c0.322-0.33 0.563-0.726 0.707-1.156 0.212-0.632 0.214-1.336-0.039-2.011-0.289-0.753-0.518-1.644-0.644-2.595-0.104-0.714-0.456-1.345-0.963-1.804-0.539-0.486-1.256-0.779-2.027-0.771h-2.996c-0.088 0-0.182 0.004-0.273 0.012-0.824 0.075-1.542 0.478-2.033 1.066s-0.758 1.367-0.683 2.199c0.3 3.076 1.365 6.243 3.216 9.102 1.502 2.413 3.648 4.623 6.298 6.306 2.568 1.697 5.684 2.862 9.086 3.231 0.092 0.009 0.191 0.013 0.288 0.013 0.828-0.003 1.578-0.343 2.118-0.887s0.873-1.297 0.87-2.121zM21 16.92v3c0.001 0.28-0.109 0.53-0.29 0.712s-0.429 0.295-0.706 0.296c-3.149-0.336-5.961-1.391-8.263-2.912-2.428-1.543-4.359-3.537-5.702-5.694-1.697-2.62-2.655-5.481-2.924-8.238-0.024-0.268 0.064-0.526 0.229-0.724s0.403-0.33 0.678-0.355l3.088-0.005c0.271-0.003 0.507 0.094 0.687 0.256 0.17 0.154 0.288 0.366 0.323 0.608 0.142 1.072 0.408 2.117 0.757 3.025 0.081 0.216 0.080 0.447 0.010 0.658-0.049 0.145-0.131 0.281-0.242 0.395l-1.262 1.261c-0.324 0.324-0.379 0.814-0.162 1.201 1.584 2.785 3.839 4.957 6.381 6.378 0.397 0.222 0.882 0.144 1.195-0.166l1.27-1.27c0.166-0.164 0.377-0.257 0.598-0.279 0.152-0.015 0.31 0.005 0.459 0.060 1.022 0.381 2.070 0.636 3.034 0.754 0.241 0.034 0.462 0.166 0.615 0.355 0.147 0.181 0.231 0.412 0.226 0.682z"></path>
</symbol>
<symbol id="icon-map" viewBox="0 0 24 24">
<path d="M22 10c0-2.761-1.12-5.263-2.929-7.071s-4.31-2.929-7.071-2.929-5.263 1.12-7.071 2.929-2.929 4.31-2.929 7.071c0 0.569 0.053 1.128 0.15 1.676 0.274 1.548 0.899 3.004 1.682 4.32 2.732 4.591 7.613 7.836 7.613 7.836 0.331 0.217 0.765 0.229 1.109 0 0 0 4.882-3.245 7.613-7.836 0.783-1.316 1.408-2.772 1.682-4.32 0.098-0.548 0.151-1.107 0.151-1.676zM20 10c0 0.444-0.041 0.887-0.119 1.328-0.221 1.25-0.737 2.478-1.432 3.646-1.912 3.214-5.036 5.747-6.369 6.74-1.398-0.916-4.588-3.477-6.53-6.74-0.695-1.168-1.211-2.396-1.432-3.646-0.077-0.441-0.118-0.884-0.118-1.328 0-2.209 0.894-4.208 2.343-5.657s3.448-2.343 5.657-2.343 4.208 0.894 5.657 2.343 2.343 3.448 2.343 5.657zM16 10c0-1.104-0.449-2.106-1.172-2.828s-1.724-1.172-2.828-1.172-2.106 0.449-2.828 1.172-1.172 1.724-1.172 2.828 0.449 2.106 1.172 2.828 1.724 1.172 2.828 1.172 2.106-0.449 2.828-1.172 1.172-1.724 1.172-2.828zM14 10c0 0.553-0.223 1.051-0.586 1.414s-0.861 0.586-1.414 0.586-1.051-0.223-1.414-0.586-0.586-0.861-0.586-1.414 0.223-1.051 0.586-1.414 0.861-0.586 1.414-0.586 1.051 0.223 1.414 0.586 0.586 0.861 0.586 1.414z"></path>
</symbol>
<symbol id="icon-play" viewBox="0 0 24 24">
<path d="M5.541 2.159c-0.153-0.1-0.34-0.159-0.541-0.159-0.552 0-1 0.448-1 1v18c-0.001 0.182 0.050 0.372 0.159 0.541 0.299 0.465 0.917 0.599 1.382 0.3l14-9c0.114-0.072 0.219-0.174 0.3-0.3 0.299-0.465 0.164-1.083-0.3-1.382zM6 4.832l11.151 7.168-11.151 7.168z"></path>
</symbol>
<symbol id="icon-arrow-right" viewBox="0 0 24 24">
<path d="M11.293 5.707l5.293 5.293h-11.586c-0.552 0-1 0.448-1 1s0.448 1 1 1h11.586l-5.293 5.293c-0.391 0.391-0.391 1.024 0 1.414s1.024 0.391 1.414 0l7-7c0.092-0.092 0.166-0.202 0.217-0.324 0.101-0.245 0.101-0.521 0-0.766-0.049-0.118-0.121-0.228-0.217-0.324l-7-7c-0.391-0.391-1.024-0.391-1.414 0s-0.391 1.024 0 1.414z"></path>
</symbol>
<symbol id="icon-arrow-left" viewBox="0 0 24 24">
<path d="M12.707 18.293l-5.293-5.293h11.586c0.552 0 1-0.448 1-1s-0.448-1-1-1h-11.586l5.293-5.293c0.391-0.391 0.391-1.024 0-1.414s-1.024-0.391-1.414 0l-7 7c-0.096 0.096-0.168 0.206-0.217 0.324-0.051 0.122-0.076 0.253-0.076 0.383 0 0.256 0.098 0.512 0.293 0.707l7 7c0.391 0.391 1.024 0.391 1.414 0s0.391-1.024 0-1.414z"></path>
</symbol>
<symbol id="icon-arrow-down" viewBox="0 0 24 24">
<path d="M18.293 11.293l-5.293 5.293v-11.586c0-0.552-0.448-1-1-1s-1 0.448-1 1v11.586l-5.293-5.293c-0.391-0.391-1.024-0.391-1.414 0s-0.391 1.024 0 1.414l7 7c0.092 0.092 0.202 0.166 0.324 0.217 0.245 0.101 0.521 0.101 0.766 0 0.118-0.049 0.228-0.121 0.324-0.217l7-7c0.391-0.391 0.391-1.024 0-1.414s-1.024-0.391-1.414 0z"></path>
</symbol>
<symbol id="icon-arrow-up" viewBox="0 0 24 24">
<path d="M5.707 12.707l5.293-5.293v11.586c0 0.552 0.448 1 1 1s1-0.448 1-1v-11.586l5.293 5.293c0.391 0.391 1.024 0.391 1.414 0s0.391-1.024 0-1.414l-7-7c-0.092-0.092-0.202-0.166-0.324-0.217s-0.253-0.076-0.383-0.076c-0.256 0-0.512 0.098-0.707 0.293l-7 7c-0.391 0.391-0.391 1.024 0 1.414s1.024 0.391 1.414 0z"></path>
</symbol>
<symbol id="icon-design" viewBox="0 0 24 24">
<path d="M9.139 15.831h-0.318l0.225-0.233c0.569-0.589 0.569-1.547 0-2.136-0.002-0.002-0.004-0.004-0.005-0.005-0.569-0.584-1.491-0.582-2.058 0.005l-0.225 0.232v-0.329c0-0.833-0.655-1.51-1.459-1.51s-1.459 0.678-1.459 1.51v0.329l-0.225-0.232c-0.569-0.589-1.495-0.589-2.063 0s-0.569 1.547 0 2.136l0.224 0.232h-0.317c-0.804-0-1.459 0.678-1.459 1.51s0.655 1.51 1.459 1.51h0.317l-0.225 0.232c-0.569 0.589-0.569 1.547-0 2.136 0.002 0.002 0.004 0.004 0.006 0.007 0.569 0.582 1.49 0.58 2.057-0.006l0.224-0.232v0.329c0 0.833 0.655 1.51 1.459 1.51s1.459-0.678 1.459-1.51v-0.329l0.225 0.232c0.569 0.589 1.495 0.589 2.063-0s0.569-1.547 0-2.136l-0.225-0.232h0.318c0.804 0 1.459-0.678 1.459-1.511s-0.654-1.51-1.459-1.51zM9.139 17.862h-0.854c-0.207 0-0.39 0.137-0.454 0.341-0.041 0.131-0.093 0.259-0.153 0.382-0.093 0.191-0.058 0.422 0.088 0.573l0.604 0.625c0.196 0.203 0.196 0.534 0 0.737s-0.516 0.203-0.712 0l-0.604-0.625c-0.146-0.151-0.369-0.188-0.554-0.092-0.119 0.062-0.243 0.116-0.37 0.159-0.196 0.067-0.329 0.256-0.329 0.47v0.884c0 0.287-0.226 0.521-0.503 0.521s-0.503-0.234-0.503-0.521v-0.884c0-0.214-0.133-0.403-0.329-0.47-0.126-0.043-0.251-0.096-0.37-0.159-0.069-0.036-0.142-0.053-0.216-0.053-0.124 0-0.246 0.050-0.338 0.145l-0.604 0.625c-0.196 0.203-0.516 0.203-0.712 0-0.001-0.001-0.002-0.002-0.004-0.004-0.193-0.204-0.191-0.531 0.004-0.733l0.604-0.626c0.146-0.151 0.182-0.383 0.088-0.573-0.060-0.122-0.111-0.251-0.153-0.382-0.064-0.203-0.248-0.34-0.454-0.34h-0.854c-0.278 0-0.503-0.234-0.503-0.521s0.226-0.521 0.503-0.521h0.854c0.206 0 0.389-0.137 0.454-0.34 0.042-0.131 0.093-0.26 0.153-0.383 0.093-0.191 0.058-0.422-0.088-0.573l-0.604-0.625c-0.196-0.203-0.196-0.534-0-0.737s0.516-0.203 0.712 0l0.604 0.625c0.146 0.151 0.369 0.188 0.554 0.092 0.118-0.062 0.242-0.115 0.369-0.158 0.196-0.067 0.329-0.256 0.329-0.47v-0.884c0-0.287 0.226-0.521 0.503-0.521s0.503 0.234 0.503 0.521v0.884c0 0.214 0.133 0.403 0.329 0.47 0.127 0.043 0.251 0.096 0.37 0.159 0.184 0.096 0.408 0.060 0.554-0.092l0.604-0.625c0.196-0.203 0.516-0.203 0.712-0 0.001 0.001 0.002 0.002 0.003 0.003 0.193 0.203 0.192 0.532-0.003 0.734l-0.604 0.625c-0.146 0.151-0.182 0.383-0.088 0.573 0.060 0.123 0.111 0.251 0.153 0.383 0.064 0.203 0.248 0.34 0.454 0.34h0.854c0.277 0 0.503 0.234 0.503 0.521s-0.226 0.521-0.503 0.521zM20.016 13.154c-0.264 0-0.478-0.221-0.478-0.495v-5.683c0-0.227-0.178-0.411-0.397-0.411h-0.875c-0.264 0-0.478-0.221-0.478-0.495s0.214-0.495 0.478-0.495h0.875c0.746 0 1.353 0.628 1.353 1.4v5.683c0 0.273-0.214 0.495-0.478 0.495zM5.299 15.706c-0.871 0-1.58 0.734-1.58 1.635s0.709 1.635 1.58 1.635c0.871 0 1.58-0.734 1.58-1.635s-0.709-1.635-1.58-1.635zM5.299 17.987c-0.344 0-0.624-0.29-0.624-0.646s0.28-0.646 0.624-0.646 0.624 0.29 0.624 0.646c0 0.356-0.28 0.646-0.624 0.646zM15.823 0.408h-3.034c-0.264 0-0.478 0.221-0.478 0.495v20.817c0 0.273 0.214 0.495 0.478 0.495h3.034c0.264 0 0.478-0.221 0.478-0.495v-20.817c0-0.273-0.214-0.495-0.478-0.495zM15.345 21.225h-2.078v-2.48h0.644c0.264 0 0.478-0.221 0.478-0.495s-0.214-0.495-0.478-0.495h-0.644v-2.48h0.644c0.264 0 0.478-0.221 0.478-0.495s-0.214-0.495-0.478-0.495h-0.644v-2.48h0.644c0.264 0 0.478-0.221 0.478-0.495s-0.214-0.495-0.478-0.495h-0.644v-2.48h0.644c0.264 0 0.478-0.221 0.478-0.495s-0.214-0.495-0.478-0.495h-0.644v-2.48h0.644c0.264 0 0.478-0.221 0.478-0.495s-0.214-0.495-0.478-0.495h-0.644v-2.48h2.078v19.827zM24 2.416v17.79c0 0.273-0.214 0.495-0.478 0.495h-2.769c-0.264 0-0.478-0.221-0.478-0.495s0.214-0.495 0.478-0.495h2.291v-16.8h-4.998c-0.264 0-0.478-0.221-0.478-0.495s0.214-0.495 0.478-0.495h5.476c0.264 0 0.478 0.222 0.478 0.495zM18.744 23.826v0.088c0 0.273-0.214 0.495-0.478 0.495s-0.478-0.221-0.478-0.495v-0.088c0-0.273 0.214-0.495 0.478-0.495s0.478 0.221 0.478 0.495zM18.744 7.878v14.345c0 0.273-0.214 0.495-0.478 0.495s-0.478-0.221-0.478-0.495v-14.345c0-0.273 0.214-0.495 0.478-0.495s0.478 0.221 0.478 0.495zM10.718 1.922c0 0-4.243 0-4.253 0.001-0.106 0.006-0.204 0.047-0.28 0.114-0 0-0 0-0 0s-0 0-0.001 0.001-0 0-0.001 0.001-0 0-0 0-0.001 0.001-0.001 0.001v0c-0.010 0.009-4.307 4.456-4.307 4.456-0.082 0.085-0.135 0.201-0.14 0.33-0 0.008-0 4.152-0 4.152 0 0.273 0.214 0.495 0.478 0.495s0.478-0.221 0.478-0.495v-3.637h3.8c0.264 0 0.478-0.221 0.478-0.495v-3.934h3.75c0.264 0 0.478-0.221 0.478-0.495s-0.214-0.495-0.478-0.495zM6.012 6.35h-2.646l2.646-2.74v2.74z"></path>
</symbol>
<symbol id="icon-engineering" viewBox="0 0 24 24">
<path d="M22.886 0h-17.684c-0.209 0-0.379 0.17-0.379 0.379s0.17 0.379 0.379 0.379h17.684c0.348 0 0.632 0.283 0.632 0.632v12.253h-2.147c-0.209 0-0.379 0.17-0.379 0.379s0.17 0.379 0.379 0.379h2.147v3.663c0 0.225-0.121 0.435-0.316 0.547-0.181 0.105-0.243 0.337-0.138 0.518 0.070 0.121 0.197 0.189 0.328 0.189 0.064 0 0.13-0.016 0.189-0.051 0.428-0.248 0.694-0.709 0.694-1.203v-16.674c-0-0.766-0.623-1.389-1.39-1.389z"></path>
<path d="M19.981 16.547c0 0.766 0.623 1.389 1.389 1.389s1.389-0.623 1.389-1.389c0-0.766-0.623-1.389-1.389-1.389s-1.389 0.623-1.389 1.389zM21.37 15.916c0.348 0 0.632 0.283 0.632 0.632s-0.283 0.632-0.632 0.632c-0.348 0-0.632-0.283-0.632-0.632s0.283-0.632 0.632-0.632z"></path>
<path d="M8.612 19.074c0-0.209-0.17-0.379-0.379-0.379h-6.568c-0.348 0-0.632-0.283-0.632-0.632v-3.663h9.221c0.209 0 0.379-0.17 0.379-0.379s-0.17-0.379-0.379-0.379h-9.221v-12.253c0-0.348 0.283-0.632 0.632-0.632h2.021c0.209 0 0.379-0.17 0.379-0.379s-0.17-0.379-0.379-0.379h-2.021c-0.766 0-1.389 0.623-1.389 1.389v16.674c0 0.766 0.623 1.389 1.389 1.389h6.568c0.209 0 0.379-0.17 0.379-0.379z"></path>
<path d="M21.555 18.784l-3.342-1.003v-1.185c0.271-0.129 0.526-0.294 0.757-0.492 0.618-0.53 1.026-1.265 1.15-2.070l0.421-2.738c0.411-0.157 0.704-0.556 0.704-1.022 0-0.292-0.114-0.567-0.32-0.773 0 0 0 0 0-0l-0.738-0.738-0.522-1.565c-0.302-0.905-1.103-1.536-2.037-1.629-0.14-0.305-0.448-0.517-0.804-0.517h-2.021c-0.357 0-0.665 0.212-0.804 0.517-0.934 0.093-1.735 0.724-2.037 1.629l-0.522 1.565-0.738 0.738c-0.207 0.207-0.32 0.481-0.32 0.773 0 0.466 0.293 0.864 0.704 1.022l0.421 2.738c0.124 0.805 0.532 1.54 1.15 2.070 0.231 0.198 0.486 0.363 0.757 0.492v1.185l-3.342 1.003c-1.023 0.307-1.71 1.231-1.71 2.299v2.033c0 0.488 0.397 0.884 0.884 0.884h9.095c0.209 0 0.379-0.17 0.379-0.379s-0.17-0.379-0.379-0.379h-5.937v-1.137c0-0.209-0.17-0.379-0.379-0.379s-0.379 0.17-0.379 0.379v1.137h-2.4c-0.070 0-0.126-0.057-0.126-0.126v-2.033c0-0.731 0.47-1.363 1.17-1.573l3.559-1.068h3.931l3.559 1.068c0.7 0.21 1.17 0.842 1.17 1.573v2.033c0 0.070-0.057 0.126-0.126 0.126h-2.4v-1.137c0-0.209-0.17-0.379-0.379-0.379s-0.379 0.17-0.379 0.379v1.516c0 0.209 0.17 0.379 0.379 0.379h2.779c0.488 0 0.884-0.397 0.884-0.884v-2.033c0-1.068-0.687-1.992-1.71-2.299zM11.474 10.61c-0.185 0-0.336-0.151-0.336-0.336 0-0.090 0.035-0.174 0.098-0.237l0.801-0.801c0.042-0.042 0.073-0.092 0.092-0.148l0.55-1.65c0.189-0.568 0.667-0.979 1.238-1.092v1.611c0 0.209 0.17 0.379 0.379 0.379s0.379-0.17 0.379-0.379v-2.021c0-0.070 0.057-0.126 0.126-0.126h2.021c0.070 0 0.126 0.057 0.126 0.126v2.021c0 0.209 0.17 0.379 0.379 0.379s0.379-0.17 0.379-0.379v-1.611c0.571 0.113 1.049 0.523 1.238 1.092l0.55 1.65c0.019 0.056 0.050 0.107 0.092 0.148l0.801 0.801c0.062 0.062 0.098 0.149 0.098 0.237 0 0.185-0.15 0.336-0.336 0.336v-0h-8.676zM16.749 16.926c0.239 0 0.475-0.025 0.706-0.074v0.832h-3.284v-0.832c0.231 0.049 0.467 0.074 0.706 0.074h0.431c0.209 0 0.379-0.17 0.379-0.379s-0.17-0.379-0.379-0.379h-0.431c-1.319 0-2.421-0.946-2.622-2.249l-0.392-2.551h7.9l-0.392 2.551c-0.201 1.303-1.303 2.249-2.622 2.249-0.209 0-0.379 0.17-0.379 0.379s0.17 0.379 0.379 0.379z"></path>
<path d="M3.181 15.158c-0.766 0-1.389 0.623-1.389 1.389s0.623 1.389 1.389 1.389h3.537c0.766 0 1.389-0.623 1.389-1.389s-0.623-1.389-1.389-1.389h-3.537zM7.349 16.547c0 0.348-0.283 0.632-0.632 0.632h-3.537c-0.348 0-0.632-0.283-0.632-0.632s0.283-0.632 0.632-0.632h3.537c0.348 0 0.632 0.283 0.632 0.632z"></path>
<path d="M7.476 2.021h-3.537c-0.348 0-0.632 0.283-0.632 0.632v1.516c0 0.348 0.283 0.632 0.632 0.632h1.389v0.903l-1.672 0.836c-0.215 0.108-0.349 0.324-0.349 0.565v0.193c0 0.241 0.134 0.457 0.349 0.565l1.672 0.836v0.903h-1.389c-0.348 0-0.632 0.283-0.632 0.632v1.516c0 0.348 0.283 0.632 0.632 0.632h3.537c0.348 0 0.632-0.283 0.632-0.632v-0.379h1.137c0.209 0 0.379-0.17 0.379-0.379s-0.17-0.379-0.379-0.379h-1.137v-0.379c0-0.348-0.283-0.632-0.632-0.632h-1.389v-0.903l1.672-0.836c0.215-0.108 0.349-0.324 0.349-0.565v-0.193c0-0.241-0.134-0.457-0.349-0.565l-1.672-0.836v-0.903h1.39c0.348 0 0.632-0.283 0.632-0.632v-0.379h12.379v3.663c0 0.209 0.17 0.379 0.379 0.379s0.379-0.17 0.379-0.379v-4.042c0-0.209-0.17-0.379-0.379-0.379h-12.758v-0.379c0-0.348-0.283-0.632-0.632-0.632zM7.349 10.358v1.263h-3.284v-1.263h3.284zM7.349 7.182v0.037l-1.642 0.821-1.642-0.821v-0.037l1.642-0.821 1.642 0.821zM7.349 4.042h-3.284v-1.263h3.284v1.263z"></path>
<path d="M8.865 16.547c0 0.766 0.623 1.389 1.389 1.389s1.389-0.623 1.389-1.389c0-0.766-0.623-1.389-1.389-1.389s-1.389 0.623-1.389 1.389zM10.886 16.547c0 0.348-0.283 0.632-0.632 0.632s-0.632-0.283-0.632-0.632c0-0.348 0.283-0.632 0.632-0.632s0.632 0.283 0.632 0.632z"></path>
</symbol>
<symbol id="icon-manufacturing" viewBox="0 0 24 24">
<path d="M20.86 5.918c0.849-0.531 1.416-1.471 1.416-2.543 0-1.654-1.346-3-3-3s-3 1.346-3 3c0 1.072 0.568 2.013 1.416 2.543-1.701 0.643-2.916 2.283-2.916 4.207v1.5h-1.5v-4.5h-6v4.5h-4.5v4.5c-1.241 0-2.25 1.009-2.25 2.25s1.009 2.25 2.25 2.25v3h12.75v-3c0.41 0 0.794-0.112 1.125-0.304v1.804c0 0.827 0.673 1.5 1.5 1.5 0.45 0 0.85-0.203 1.125-0.518 0.275 0.315 0.675 0.518 1.125 0.518 0.827 0 1.5-0.673 1.5-1.5v-7.5h0.375c0.827 0 1.5-0.673 1.5-1.5v-3c0-1.923-1.215-3.564-2.916-4.207zM19.276 6.375c0.254 0 0.503 0.026 0.743 0.075-0.038 0.378-0.354 0.675-0.743 0.675s-0.705-0.297-0.742-0.675c0.24-0.049 0.488-0.075 0.742-0.075zM17.026 3.375c0-1.241 1.009-2.25 2.25-2.25s2.25 1.009 2.25 2.25c0 1.241-1.009 2.25-2.25 2.25s-2.25-1.009-2.25-2.25zM16.651 16.429c-0.331-0.192-0.715-0.304-1.125-0.304v-1.708c0.222 0.129 0.476 0.208 0.75 0.208h0.375v1.804zM14.776 13.125v3h-0.75v-1.5h-3v1.5h-0.75v-3.75h0.75v1.5h3v-1.5h0.75v0.75zM13.651 19.5c-0.62 0-1.125-0.505-1.125-1.125s0.505-1.125 1.125-1.125c0.62 0 1.125 0.505 1.125 1.125s-0.505 1.125-1.125 1.125zM11.776 18.375c0 0.615 0.302 1.158 0.762 1.5h-1.523c0.459-0.342 0.762-0.885 0.762-1.5s-0.302-1.158-0.762-1.5h1.523c-0.459 0.342-0.762 0.885-0.762 1.5zM6.526 16.125h-1.5v-0.75h1.5v0.75zM4.651 17.25c0.62 0 1.125 0.505 1.125 1.125s-0.505 1.125-1.125 1.125c-0.62 0-1.125-0.505-1.125-1.125s0.505-1.125 1.125-1.125zM6.526 18.375c0-0.615-0.302-1.158-0.762-1.5h3.023c-0.459 0.342-0.762 0.885-0.762 1.5s0.302 1.158 0.762 1.5h-3.023c0.459-0.342 0.762-0.885 0.762-1.5zM11.776 12.375h1.5v0.75h-1.5v-0.75zM11.026 11.625h-1.5v-0.75h1.5v0.75zM9.526 12.375v3.75h-0.75v-3.75h0.75zM9.901 19.5c-0.62 0-1.125-0.505-1.125-1.125s0.505-1.125 1.125-1.125c0.62 0 1.125 0.505 1.125 1.125s-0.505 1.125-1.125 1.125zM13.276 16.125h-1.5v-0.75h1.5v0.75zM9.526 7.875h1.5v0.75h-1.5v-0.75zM8.026 7.875h0.75v1.5h3v-1.5h0.75v3.75h-0.75v-1.5h-3v1.5h-0.75v-3.75zM5.026 12.375h1.5v0.75h-1.5v-0.75zM3.526 12.375h0.75v1.5h3v-1.5h0.75v3.75h-0.75v-1.5h-3v1.5h-0.75v-3.75zM1.276 18.375c0-0.827 0.673-1.5 1.5-1.5h0.762c-0.459 0.342-0.762 0.885-0.762 1.5s0.302 1.158 0.762 1.5h-0.762c-0.827 0-1.5-0.673-1.5-1.5zM14.776 22.875h-11.25v-2.25h11.25v2.25zM15.526 19.875h-0.762c0.459-0.342 0.762-0.885 0.762-1.5s-0.302-1.158-0.762-1.5h0.762c0.827 0 1.5 0.673 1.5 1.5s-0.673 1.5-1.5 1.5zM23.026 13.125c0 0.414-0.336 0.75-0.75 0.75h-0.375v-5.25h-0.75v13.5c0 0.414-0.336 0.75-0.75 0.75s-0.75-0.336-0.75-0.75v-9.375h-0.75v9.375c0 0.414-0.336 0.75-0.75 0.75s-0.75-0.336-0.75-0.75v-2.509c0.237-0.356 0.375-0.783 0.375-1.241s-0.138-0.885-0.375-1.241v-8.509h-0.75v5.25h-0.375c-0.414 0-0.75-0.336-0.75-0.75v-3c0-1.546 0.941-2.877 2.28-3.449 0.139 0.684 0.745 1.199 1.47 1.199s1.33-0.516 1.47-1.199c1.339 0.573 2.28 1.903 2.28 3.449v3z"></path>
<path d="M13.651 18.75c0.207 0 0.375-0.168 0.375-0.375s-0.168-0.375-0.375-0.375c-0.207 0-0.375 0.168-0.375 0.375s0.168 0.375 0.375 0.375z"></path>
<path d="M9.901 18.75c0.207 0 0.375-0.168 0.375-0.375s-0.168-0.375-0.375-0.375c-0.207 0-0.375 0.168-0.375 0.375s0.168 0.375 0.375 0.375z"></path>
<path d="M4.651 18.75c0.207 0 0.375-0.168 0.375-0.375s-0.168-0.375-0.375-0.375c-0.207 0-0.375 0.168-0.375 0.375s0.168 0.375 0.375 0.375z"></path>
<path d="M6.526 4.875h-6v5.25h6v-5.25zM2.776 5.625h1.5v0.75h-1.5v-0.75zM4.276 9.375h-1.5v-0.75h1.5v0.75zM5.776 9.375h-0.75v-1.5h-3v1.5h-0.75v-3.75h0.75v1.5h3v-1.5h0.75v3.75z"></path>
</symbol>
<symbol id="icon-assembly" viewBox="0 0 24 24">
<path d="M21.874 7.442c0.234-0.335 0.372-0.741 0.372-1.179v-0.611c0.18-0.066 0.308-0.238 0.308-0.44v-0.145c0-1.307-1.063-2.371-2.371-2.371s-2.371 1.063-2.371 2.371v0.145c0 0.202 0.129 0.374 0.308 0.44v0.611c0 0.438 0.138 0.845 0.372 1.179-1.175 0.241-2.073 1.248-2.147 2.475h-2.724c-0.259 0-0.469 0.21-0.469 0.469v2.906h-1.902v-2.906c0-0.259-0.21-0.469-0.469-0.469h-3.375c-0.259 0-0.469 0.21-0.469 0.469v2.906h-1.688v-6.254l3.267-3.267 2.181 2.181c0.174 0.174 0.381 0.294 0.602 0.361v0.792l-0.98 0.98c-0.088 0.088-0.137 0.207-0.137 0.331v0.866c0 0.259 0.21 0.469 0.469 0.469s0.469-0.21 0.469-0.469v-0.671l0.648-0.648 0.648 0.648v0.601c0 0.259 0.21 0.469 0.469 0.469s0.469-0.21 0.469-0.469v-0.795c0-0.124-0.049-0.244-0.137-0.331l-0.98-0.98v-0.825c0.185-0.070 0.358-0.179 0.506-0.328 0.273-0.273 0.424-0.636 0.424-1.023s-0.151-0.749-0.424-1.023l-3.402-3.402c-0.001-0.001-0.002-0.001-0.003-0.002-0.673-0.669-1.764-0.667-2.436 0.004l-4.15 4.15c-0.964 0.188-1.694 1.038-1.694 2.057v2.428c0 0.259 0.21 0.469 0.469 0.469s0.469-0.21 0.469-0.469v-0.682c0.332 0.221 0.73 0.35 1.158 0.35s0.826-0.129 1.158-0.35v5.002c-0.022 0.009-0.044 0.019-0.066 0.029-0.349-0.13-0.716-0.197-1.093-0.197-0.409 0-0.8 0.080-1.158 0.223v-0.907c0-0.259-0.21-0.469-0.469-0.469s-0.469 0.21-0.469 0.469v1.491c-0.634 0.573-1.032 1.401-1.032 2.32v7.111c0 0.259 0.21 0.469 0.469 0.469h21.375c0.259 0 0.469-0.21 0.469-0.469v-7.819c0.941-0.064 1.687-0.85 1.687-1.807v-3.822c0-1.3-0.926-2.388-2.153-2.64zM20.158 7.387c-0.609-0.014-1.1-0.513-1.1-1.124v-0.582h2.25v0.582c0 0.612-0.491 1.111-1.1 1.124h-0.051zM21.579 4.742h-0.928v-1.031c0.461 0.16 0.816 0.549 0.928 1.031zM19.714 3.712v1.031h-0.928c0.112-0.481 0.467-0.87 0.928-1.031zM19.386 14.229c0.646 0 1.172 0.526 1.172 1.172s-0.526 1.172-1.172 1.172h-14.25c-0.646 0-1.172-0.526-1.172-1.172s0.526-1.172 1.172-1.172h14.25zM18.964 17.51h0.422c0.112 0 0.221-0.009 0.328-0.026v5.576h-0.75v-5.551zM3.051 15.724c0.067 0.432 0.266 0.821 0.553 1.125-0.12 0.113-0.28 0.179-0.45 0.179-0.362 0-0.656-0.294-0.656-0.656 0-0.327 0.24-0.598 0.553-0.647zM14.089 10.854h2.437v2.438h-2.437v-2.438zM7.875 10.854h2.438v2.438h-2.438v-2.438zM6.91 2.936c0.197 0.197 0.434 0.34 0.693 0.423l-2.524 2.524c-0.216-0.499-0.619-0.897-1.121-1.107l2.532-2.531c0.081 0.253 0.221 0.491 0.421 0.691zM12.23 4.928c0 0.136-0.053 0.264-0.149 0.36-0.198 0.198-0.521 0.198-0.72 0l-2.181-2.181 0.163-0.163c0.197-0.197 0.34-0.433 0.423-0.691l2.315 2.315c0.096 0.096 0.149 0.224 0.149 0.36zM8.68 1.167c0.149 0.149 0.231 0.346 0.231 0.557 0 0.192-0.069 0.372-0.193 0.516-0.013 0.010-0.025 0.021-0.037 0.033-0.305 0.305-0.802 0.305-1.108 0s-0.305-0.802 0-1.108c0.007-0.007 0.014-0.015 0.020-0.022 0.309-0.282 0.789-0.274 1.087 0.024zM3.154 7.869c-0.638 0-1.158-0.519-1.158-1.158s0.519-1.158 1.158-1.158c0.639 0 1.158 0.519 1.158 1.158s-0.519 1.158-1.158 1.158zM0.964 16.419c0-1.208 0.983-2.19 2.19-2.19 0.075 0 0.148 0.004 0.221 0.011-0.109 0.165-0.196 0.346-0.255 0.539-0.863 0.018-1.56 0.725-1.56 1.593 0 0.879 0.715 1.594 1.594 1.594 0.488 0 0.94-0.22 1.239-0.591 0.231 0.087 0.482 0.136 0.743 0.136h0.209v5.551h-4.381v-6.642zM18.027 23.061h-11.744v-3.301h5.486c0.259 0 0.469-0.21 0.469-0.469s-0.21-0.469-0.469-0.469h-5.486v-1.312h11.744v5.551zM20.652 23.061v-5.974c0.351-0.264 0.617-0.635 0.75-1.064v7.038h-0.75zM23.089 13.904c0 0.44-0.327 0.804-0.75 0.864v-3.985c0-0.259-0.21-0.469-0.469-0.469s-0.469 0.21-0.469 0.469v3.996c-0.266-0.86-1.069-1.487-2.016-1.487h-0.422v-2.509c0-0.259-0.21-0.469-0.469-0.469s-0.469 0.21-0.469 0.469v2.509h-0.562v-2.906c0-0.152-0.073-0.287-0.186-0.373 0.036-0.937 0.81-1.688 1.755-1.688h1.124c0.008 0 0.017 0.001 0.025 0.001s0.017-0 0.025-0.001h1.124c0.969 0 1.757 0.788 1.757 1.757v3.822z"></path>
<path d="M1.528 11.483c0.123 0 0.244-0.050 0.331-0.138s0.137-0.208 0.137-0.331c0-0.123-0.050-0.244-0.137-0.331s-0.208-0.137-0.331-0.137c-0.123 0-0.244 0.050-0.331 0.137s-0.137 0.208-0.137 0.331c0 0.123 0.050 0.244 0.137 0.331s0.208 0.138 0.331 0.138z"></path>
<path d="M3.155 6.242c-0.124 0-0.244 0.050-0.331 0.137s-0.137 0.208-0.137 0.331c0 0.124 0.050 0.244 0.137 0.331s0.208 0.137 0.331 0.137c0.123 0 0.244-0.050 0.331-0.137s0.137-0.208 0.137-0.331c0-0.123-0.050-0.244-0.137-0.331s-0.208-0.137-0.331-0.137z"></path>
<path d="M7.795 2.050c0.088 0.087 0.208 0.137 0.331 0.137s0.244-0.050 0.332-0.137c0.087-0.087 0.137-0.208 0.137-0.331s-0.050-0.244-0.137-0.331c-0.088-0.087-0.208-0.137-0.332-0.137s-0.244 0.050-0.331 0.137c-0.087 0.087-0.137 0.208-0.137 0.331s0.050 0.244 0.137 0.331z"></path>
<path d="M9.495 14.932c-0.123 0-0.244 0.050-0.331 0.137s-0.137 0.208-0.137 0.331 0.050 0.244 0.137 0.331c0.087 0.088 0.208 0.137 0.331 0.137s0.244-0.050 0.331-0.137c0.087-0.087 0.137-0.208 0.137-0.331s-0.050-0.244-0.137-0.331c-0.087-0.087-0.208-0.137-0.331-0.137z"></path>
<path d="M6.495 14.932c-0.123 0-0.244 0.050-0.331 0.137s-0.137 0.208-0.137 0.331c0 0.124 0.050 0.244 0.137 0.331s0.208 0.137 0.331 0.137c0.123 0 0.244-0.050 0.331-0.137s0.137-0.208 0.137-0.331c0-0.123-0.050-0.244-0.137-0.331s-0.208-0.137-0.331-0.137z"></path>
<path d="M18.495 15.869c0.123 0 0.244-0.050 0.331-0.137s0.137-0.208 0.137-0.331c0-0.123-0.050-0.244-0.137-0.331s-0.208-0.137-0.331-0.137c-0.123 0-0.244 0.050-0.331 0.137s-0.137 0.208-0.137 0.331c0 0.124 0.050 0.244 0.137 0.331s0.208 0.137 0.331 0.137z"></path>
<path d="M12.495 14.932c-0.123 0-0.244 0.050-0.331 0.137s-0.137 0.208-0.137 0.331 0.050 0.244 0.137 0.331c0.087 0.088 0.208 0.137 0.331 0.137s0.244-0.050 0.331-0.137c0.087-0.087 0.137-0.208 0.137-0.331s-0.050-0.244-0.137-0.331-0.208-0.137-0.331-0.137z"></path>
<path d="M15.495 14.932c-0.123 0-0.244 0.050-0.331 0.137s-0.137 0.208-0.137 0.331 0.050 0.244 0.137 0.331c0.087 0.088 0.208 0.137 0.331 0.137s0.244-0.050 0.331-0.137c0.087-0.087 0.137-0.208 0.137-0.331s-0.050-0.244-0.137-0.331c-0.087-0.087-0.208-0.137-0.331-0.137z"></path>
<path d="M13.569 19.76c0.123 0 0.244-0.050 0.331-0.137s0.137-0.208 0.137-0.331c0-0.123-0.050-0.244-0.137-0.331s-0.208-0.137-0.331-0.137c-0.123 0-0.244 0.050-0.331 0.137s-0.137 0.208-0.137 0.331c0 0.124 0.050 0.244 0.137 0.331s0.208 0.137 0.331 0.137z"></path>
</symbol>
<symbol id="icon-startup" viewBox="0 0 24 24">
<path d="M17.552 21.375c0 0.298-0.119 0.585-0.33 0.795s-0.497 0.33-0.795 0.33h-13.5c-0.298 0-0.585-0.119-0.795-0.33s-0.33-0.497-0.33-0.795v-18.75c0-0.298 0.119-0.585 0.33-0.795s0.497-0.33 0.795-0.33h11.625v1.875c0 0.298 0.119 0.585 0.329 0.795s0.497 0.33 0.796 0.33h1.875v7.875h0.75v-8.25c-0-0.099-0.040-0.195-0.11-0.265l-3-3c-0.070-0.070-0.166-0.11-0.265-0.11h-12c-0.497 0.001-0.974 0.198-1.325 0.55s-0.549 0.828-0.55 1.325v18.75c0.001 0.497 0.198 0.974 0.55 1.325s0.828 0.549 1.325 0.55h13.5c0.497-0.001 0.974-0.198 1.325-0.55s0.549-0.828 0.55-1.325v-1.5h-0.75v1.5zM15.302 3.375v-1.345l1.72 1.72h-1.345c-0.099 0-0.195-0.040-0.265-0.11s-0.11-0.166-0.11-0.265z"></path>
<path d="M3.302 3h0.75v0.75h-0.75v-0.75z"></path>
<path d="M4.802 3h2.25v0.75h-2.25v-0.75z"></path>
<path d="M3.302 4.5h3.75v0.75h-3.75v-0.75z"></path>
<path d="M23.128 10.924c-0.352-0.351-0.829-0.548-1.326-0.548s-0.974 0.197-1.326 0.548l-6.629 6.629c-0.052 0.052-0.088 0.119-0.102 0.191l-0.243 1.215-0.715 0.715c-0.106 0.104-0.19 0.228-0.248 0.365s-0.088 0.284-0.088 0.432c-0.001 0.149 0.028 0.296 0.085 0.433s0.14 0.262 0.245 0.367c0.105 0.105 0.23 0.188 0.367 0.245s0.284 0.085 0.433 0.085c0.148-0.001 0.295-0.031 0.432-0.088s0.261-0.142 0.365-0.248l0.715-0.715 1.215-0.243c0.072-0.015 0.139-0.050 0.191-0.103l6.629-6.629c0.351-0.352 0.548-0.829 0.548-1.326s-0.197-0.974-0.548-1.326zM14.255 19.021l0.177-0.884 1.484 1.484-0.884 0.177-0.777-0.777zM14.908 17.553l4.508-4.508 0.531 0.53-4.508 4.508-0.531-0.53zM15.969 18.613l4.508-4.508 0.53 0.531-4.508 4.508-0.53-0.53zM19.947 12.514l0.265-0.265 1.591 1.591-0.266 0.265-1.591-1.591zM13.847 20.735c-0.071 0.068-0.166 0.106-0.265 0.106s-0.194-0.038-0.265-0.106c-0.035-0.035-0.063-0.076-0.081-0.122s-0.029-0.094-0.029-0.144 0.010-0.098 0.029-0.144c0.019-0.046 0.047-0.087 0.081-0.122l0.53-0.53 0.531 0.531-0.531 0.53zM22.598 13.045l-0.265 0.265-1.591-1.591 0.265-0.265c0.104-0.104 0.229-0.187 0.365-0.244s0.283-0.086 0.431-0.086 0.294 0.029 0.431 0.086c0.136 0.057 0.261 0.139 0.365 0.244s0.187 0.229 0.244 0.365c0.057 0.137 0.086 0.283 0.086 0.431s-0.029 0.294-0.086 0.431c-0.057 0.137-0.139 0.261-0.244 0.365z"></path>
<path d="M16.461 11.479c0.070-0.071 0.11-0.167 0.11-0.266s-0.039-0.195-0.11-0.266l-3.712-3.713c-0.072-0.067-0.166-0.104-0.264-0.104s-0.193 0.037-0.264 0.104l-0.982 0.983-0.574 0.112-1.095-1.095c-0.072-0.069-0.167-0.108-0.266-0.109h-1.436l-0.949-0.952c-0.071-0.070-0.167-0.11-0.266-0.11s-0.195 0.039-0.266 0.11l-3.713 3.712c-0.070 0.071-0.11 0.167-0.11 0.266s0.039 0.195 0.11 0.266l2.7 2.7c-0.081 0.166-0.119 0.35-0.111 0.535s0.062 0.365 0.157 0.524 0.228 0.292 0.387 0.386c0.159 0.095 0.339 0.148 0.524 0.156 0.010 0.277 0.125 0.54 0.322 0.735 0.196 0.197 0.458 0.313 0.735 0.326 0.014 0.277 0.13 0.539 0.326 0.735s0.458 0.312 0.735 0.326c0.012 0.216 0.087 0.425 0.214 0.6s0.304 0.31 0.506 0.387c0.202 0.078 0.423 0.095 0.635 0.050s0.407-0.15 0.561-0.303l0.397 0.397c0.104 0.105 0.228 0.188 0.365 0.244s0.283 0.086 0.43 0.086c0.148 0 0.294-0.029 0.43-0.086s0.26-0.14 0.365-0.244c0.198-0.196 0.313-0.46 0.323-0.739 0.277-0.010 0.541-0.125 0.737-0.321s0.312-0.459 0.324-0.736c0.278-0.012 0.54-0.128 0.737-0.324s0.312-0.459 0.324-0.737c0.217-0.010 0.427-0.084 0.604-0.211s0.312-0.303 0.39-0.506c0.078-0.203 0.096-0.424 0.051-0.637s-0.152-0.408-0.306-0.562l-0.397-0.397 1.324-1.324zM3.467 10.151l3.184-3.18 0.529 0.529-3.18 3.184-0.532-0.532zM4.528 11.212l3.337-3.338h1.283l2.936 2.94c0.036 0.034 0.064 0.075 0.083 0.121s0.029 0.094 0.029 0.144c0 0.049-0.010 0.098-0.029 0.144s-0.048 0.087-0.083 0.121c-0.071 0.069-0.166 0.107-0.264 0.107s-0.193-0.038-0.264-0.107l-1.59-1.59c-0.072-0.068-0.167-0.105-0.266-0.105s-0.194 0.038-0.266 0.105c-0.214 0.205-0.499 0.319-0.795 0.319s-0.581-0.114-0.795-0.319l-0.529 0.529c0.136 0.134 0.292 0.246 0.461 0.334l-1.92 1.924-1.327-1.327zM10.228 15.851c-0.138 0.14-0.237 0.314-0.287 0.504s-0.049 0.39 0.002 0.58l-0.113 0.109c-0.035 0.035-0.076 0.063-0.122 0.082s-0.095 0.028-0.144 0.027c-0.049 0.001-0.097-0.008-0.143-0.027s-0.086-0.046-0.12-0.082c-0.070-0.069-0.109-0.163-0.11-0.262s0.038-0.193 0.106-0.263c0.001 0 0.002-0 0.003-0.001s0.001-0.002 0.001-0.003l1.061-1.057v-0.004l-0.533-0.529-1.061 1.061c-0.004 0-0.004 0-0.004 0.004-0.072 0.065-0.166 0.101-0.263 0.101s-0.191-0.038-0.262-0.105c-0.070-0.071-0.109-0.167-0.109-0.266s0.039-0.195 0.109-0.266l1.061-1.061-0.529-0.529-1.061 1.061c-0.035 0.035-0.076 0.063-0.122 0.082s-0.095 0.029-0.144 0.029c-0.049 0-0.098-0.010-0.144-0.029s-0.087-0.047-0.122-0.082c-0.035-0.035-0.063-0.076-0.082-0.122s-0.029-0.095-0.029-0.144 0.010-0.098 0.029-0.144c0.019-0.046 0.047-0.087 0.082-0.122l1.061-1.058-0.529-0.532-1.061 1.061c-0.072 0.069-0.167 0.107-0.266 0.107s-0.195-0.038-0.266-0.107c-0.070-0.070-0.109-0.165-0.109-0.264s0.039-0.194 0.109-0.264l2.501-2.505c0.008 0 0.011 0.004 0.019 0.004 0.368 0.001 0.729-0.107 1.035-0.311l1.354 1.354c0.214 0.204 0.499 0.318 0.795 0.318s0.581-0.114 0.795-0.318c0.207-0.207 0.325-0.487 0.329-0.779s-0.106-0.575-0.307-0.788l1.969 1.965-0.113 0.109c-0.19-0.051-0.39-0.051-0.58 0s-0.364 0.15-0.503 0.289c-0.197 0.195-0.312 0.458-0.323 0.735-0.279 0.012-0.544 0.129-0.741 0.328s-0.311 0.465-0.32 0.744c-0.277 0.007-0.541 0.12-0.739 0.315s-0.313 0.458-0.323 0.735c-0.277 0.014-0.54 0.129-0.739 0.323zM11.822 17.445c-0.072 0.068-0.167 0.105-0.266 0.105s-0.194-0.038-0.266-0.105l-0.529-0.532c-0.039-0.034-0.071-0.075-0.094-0.122s-0.035-0.097-0.037-0.149c-0.002-0.052 0.007-0.103 0.026-0.151s0.047-0.092 0.084-0.128c0.037-0.037 0.080-0.065 0.128-0.084s0.1-0.028 0.151-0.026 0.102 0.015 0.149 0.037c0.047 0.023 0.088 0.054 0.122 0.094l0.533 0.529c0.070 0.071 0.11 0.167 0.11 0.266s-0.039 0.195-0.11 0.266zM12.883 16.384c-0.071 0.070-0.167 0.11-0.266 0.11s-0.195-0.039-0.266-0.11l-0.529-0.532c-0.070-0.070-0.109-0.165-0.109-0.264s0.039-0.194 0.109-0.264c0.070-0.070 0.165-0.109 0.264-0.109s0.194 0.039 0.264 0.109l0.533 0.529c0.070 0.071 0.109 0.167 0.109 0.266s-0.039 0.195-0.109 0.266zM13.941 15.322c-0.071 0.069-0.166 0.107-0.264 0.107s-0.193-0.038-0.264-0.107l-0.529-0.533c-0.036-0.034-0.064-0.074-0.083-0.12s-0.029-0.094-0.029-0.143c0.001-0.099 0.040-0.194 0.111-0.264s0.165-0.11 0.264-0.111c0.099 0 0.195 0.039 0.266 0.109l0.529 0.532c0.070 0.070 0.109 0.165 0.109 0.264s-0.039 0.194-0.109 0.264zM15.002 14.261c-0.070 0.070-0.165 0.109-0.264 0.109s-0.194-0.039-0.264-0.109l-0.533-0.529c-0.070-0.071-0.11-0.167-0.11-0.266s0.039-0.195 0.11-0.266c0.072-0.069 0.167-0.108 0.266-0.109 0.099 0 0.195 0.039 0.266 0.109l0.529 0.533c0.036 0.034 0.064 0.075 0.083 0.121s0.029 0.094 0.029 0.144c0 0.049-0.010 0.098-0.029 0.144s-0.048 0.086-0.083 0.121zM11.953 8.561l0.532-0.533 3.18 3.184-0.529 0.529-3.184-3.18z"></path>
<path d="M8.177 20.25h3.75v0.75h-3.75v-0.75z"></path>
<path d="M3.302 16.5h3v0.75h-3v-0.75z"></path>
<path d="M3.302 18h3.75v0.75h-3.75v-0.75z"></path>
<path d="M3.302 15h2.25v0.75h-2.25v-0.75z"></path>
</symbol>
</defs>
</svg>
