<svg aria-hidden="true" style="position:absolute;width:0;height:0" xmlns="http://www.w3.org/2000/svg" overflow="hidden"><defs><symbol id="icon-fax" viewBox="0 0 24 24"><path d="M19.5 24H3.75a1.5 1.5 0 01-1.5-1.5v-18A1.5 1.5 0 013.75 3v18a1.5 1.5 0 001.5 1.5h3a1.5 1.5 0 001.5-1.5V3h9.75A1.5 1.5 0 0121 4.5v18a1.5 1.5 0 01-1.5 1.5zm-3.75-2.25h1.5v-1.5h-1.5v1.5zm0-2.25h1.5V18h-1.5v1.5zm0-2.25h1.5v-1.5h-1.5v1.5zm0-2.25h1.5v-1.5h-1.5V15zm-2.25 6.75H15v-1.5h-1.5v1.5zm0-2.25H15V18h-1.5v1.5zm0-2.25H15v-1.5h-1.5v1.5zm0-2.25H15v-1.5h-1.5V15zm6-9.75a.749.749 0 00-.75-.75H12a.75.75 0 00-.75.75v3c0 .414.336.75.75.75h6.75a.75.75 0 00.75-.75v-3zm0 8.25H18V15h1.5v-1.5zm0 2.25H18v1.5h1.5v-1.5zm0 2.25H18v1.5h1.5V18zm0 2.25H18v1.5h1.5v-1.5zm-11.25 1.5h-3A.75.75 0 014.5 21V2.25a.75.75 0 01.75-.75h1.454V0H7.5v1.5h.75a.75.75 0 01.75.75V21a.75.75 0 01-.75.75z"/></symbol><symbol id="icon-player" viewBox="0 0 24 24"><path d="M8.016 5.016L18.985 12 8.016 18.984V5.015z"/></symbol><symbol id="icon-phone" viewBox="0 0 24 24"><path d="M23 16.92a3.006 3.006 0 00-2.598-3.023c-.8-.098-1.695-.314-2.586-.646a3.045 3.045 0 00-1.344-.174 2.987 2.987 0 00-1.819.855l-.72.72a14.84 14.84 0 01-4.583-4.589l.726-.726c.322-.33.563-.726.707-1.156a2.992 2.992 0 00-.039-2.011 11.591 11.591 0 01-.644-2.595 3.02 3.02 0 00-.963-1.804A2.982 2.982 0 007.11 1H4.114a2.998 2.998 0 00-2.989 3.277c.3 3.076 1.365 6.243 3.216 9.102 1.502 2.413 3.648 4.623 6.298 6.306 2.568 1.697 5.684 2.862 9.086 3.231a2.994 2.994 0 002.406-.874c.54-.544.873-1.297.87-2.121zm-2 0v3a.997.997 0 01-.996 1.008c-3.149-.336-5.961-1.391-8.263-2.912-2.428-1.543-4.359-3.537-5.702-5.694-1.697-2.62-2.655-5.481-2.924-8.238-.024-.268.064-.526.229-.724s.403-.33.678-.355L7.11 3a.995.995 0 01.687.256c.17.154.288.366.323.608.142 1.072.408 2.117.757 3.025.081.216.08.447.01.658a1.049 1.049 0 01-.242.395L7.383 9.203a1.001 1.001 0 00-.162 1.201c1.584 2.785 3.839 4.957 6.381 6.378.397.222.882.144 1.195-.166l1.27-1.27a.984.984 0 01.598-.279c.152-.015.31.005.459.06 1.022.381 2.07.636 3.034.754a.976.976 0 01.615.355c.147.181.231.412.226.682z"/></symbol><symbol id="icon-map" viewBox="0 0 24 24"><path d="M22 10c0-2.761-1.12-5.263-2.929-7.071S14.761 0 12 0 6.737 1.12 4.929 2.929 2 7.239 2 10c0 .569.053 1.128.15 1.676.274 1.548.899 3.004 1.682 4.32 2.732 4.591 7.613 7.836 7.613 7.836.331.217.765.229 1.109 0 0 0 4.882-3.245 7.613-7.836.783-1.316 1.408-2.772 1.682-4.32A9.506 9.506 0 0022 10zm-2 0c0 .444-.041.887-.119 1.328-.221 1.25-.737 2.478-1.432 3.646-1.912 3.214-5.036 5.747-6.369 6.74-1.398-.916-4.588-3.477-6.53-6.74-.695-1.168-1.211-2.396-1.432-3.646A7.713 7.713 0 014 10c0-2.209.894-4.208 2.343-5.657S9.791 2 12 2s4.208.894 5.657 2.343S20 7.791 20 10zm-4 0a3.988 3.988 0 00-1.172-2.828 3.994 3.994 0 00-5.656 0 3.994 3.994 0 000 5.656 3.994 3.994 0 005.656 0A3.994 3.994 0 0016 10zm-2 0c0 .553-.223 1.051-.586 1.414S12.553 12 12 12s-1.051-.223-1.414-.586S10 10.553 10 10s.223-1.051.586-1.414S11.447 8 12 8s1.051.223 1.414.586S14 9.447 14 10z"/></symbol><symbol id="icon-play" viewBox="0 0 24 24"><path d="M5.541 2.159A1 1 0 004 3v18a1 1 0 001.541.841l14-9a1 1 0 000-1.682zM6 4.832L17.151 12 6 19.168z"/></symbol><symbol id="icon-arrow-right" viewBox="0 0 24 24"><path d="M11.293 5.707L16.586 11H5a1 1 0 000 2h11.586l-5.293 5.293a.999.999 0 101.414 1.414l7-7a1.006 1.006 0 000-1.414l-7-7a.999.999 0 10-1.414 1.414z"/></symbol><symbol id="icon-arrow-left" viewBox="0 0 24 24"><path d="M12.707 18.293L7.414 13H19a1 1 0 000-2H7.414l5.293-5.293a.999.999 0 10-1.414-1.414l-7 7a.998.998 0 000 1.414l7 7a.999.999 0 101.414-1.414z"/></symbol><symbol id="icon-arrow-down" viewBox="0 0 24 24"><path d="M18.293 11.293L13 16.586V5a1 1 0 00-2 0v11.586l-5.293-5.293a.999.999 0 10-1.414 1.414l7 7a1.006 1.006 0 001.414 0l7-7a.999.999 0 10-1.414-1.414z"/></symbol><symbol id="icon-arrow-up" viewBox="0 0 24 24"><path d="M5.707 12.707L11 7.414V19a1 1 0 002 0V7.414l5.293 5.293a.999.999 0 101.414-1.414l-7-7A1.008 1.008 0 0012 4a.997.997 0 00-.707.293l-7 7a.999.999 0 101.414 1.414z"/></symbol><symbol id="icon-design" viewBox="0 0 24 24"><path d="M9.139 15.831h-.318l.225-.233a1.55 1.55 0 000-2.136l-.005-.005a1.425 1.425 0 00-2.058.005l-.225.232v-.329c0-.833-.655-1.51-1.459-1.51s-1.459.678-1.459 1.51v.329l-.225-.232c-.569-.589-1.495-.589-2.063 0s-.569 1.547 0 2.136l.224.232h-.317C.655 15.83 0 16.508 0 17.34s.655 1.51 1.459 1.51h.317l-.225.232a1.55 1.55 0 000 2.136l.006.007c.569.582 1.49.58 2.057-.006l.224-.232v.329c0 .833.655 1.51 1.459 1.51s1.459-.678 1.459-1.51v-.329l.225.232c.569.589 1.495.589 2.063 0s.569-1.547 0-2.136l-.225-.232h.318c.804 0 1.459-.678 1.459-1.511s-.654-1.51-1.459-1.51zm0 2.031h-.854a.478.478 0 00-.454.341 2.742 2.742 0 01-.153.382.508.508 0 00.088.573l.604.625c.196.203.196.534 0 .737s-.516.203-.712 0l-.604-.625a.467.467 0 00-.554-.092 2.626 2.626 0 01-.37.159.494.494 0 00-.329.47v.884c0 .287-.226.521-.503.521s-.503-.234-.503-.521v-.884a.494.494 0 00-.329-.47 2.561 2.561 0 01-.37-.159.463.463 0 00-.554.092l-.604.625a.492.492 0 01-.712 0l-.004-.004a.534.534 0 01.004-.733l.604-.626a.506.506 0 00.088-.573 2.818 2.818 0 01-.153-.382.48.48 0 00-.454-.34h-.854c-.278 0-.503-.234-.503-.521s.226-.521.503-.521h.854a.48.48 0 00.454-.34c.042-.131.093-.26.153-.383a.508.508 0 00-.088-.573l-.604-.625c-.196-.203-.196-.534 0-.737s.516-.203.712 0l.604.625a.467.467 0 00.554.092 2.56 2.56 0 01.369-.158.494.494 0 00.329-.47v-.884c0-.287.226-.521.503-.521s.503.234.503.521v.884c0 .214.133.403.329.47.127.043.251.096.37.159.184.096.408.06.554-.092l.604-.625a.492.492 0 01.712 0l.003.003a.536.536 0 01-.003.734l-.604.625a.506.506 0 00-.088.573c.06.123.111.251.153.383a.48.48 0 00.454.34h.854c.277 0 .503.234.503.521s-.226.521-.503.521zm10.877-4.708a.486.486 0 01-.478-.495V6.976a.404.404 0 00-.397-.411h-.875c-.264 0-.478-.221-.478-.495s.214-.495.478-.495h.875c.746 0 1.353.628 1.353 1.4v5.683a.487.487 0 01-.478.495zM5.299 15.706c-.871 0-1.58.734-1.58 1.635s.709 1.635 1.58 1.635c.871 0 1.58-.734 1.58-1.635s-.709-1.635-1.58-1.635zm0 2.281c-.344 0-.624-.29-.624-.646s.28-.646.624-.646.624.29.624.646c0 .356-.28.646-.624.646zM15.823.408h-3.034a.486.486 0 00-.478.495V21.72c0 .273.214.495.478.495h3.034a.486.486 0 00.478-.495V.903a.487.487 0 00-.478-.495zm-.478 20.817h-2.078v-2.48h.644c.264 0 .478-.221.478-.495s-.214-.495-.478-.495h-.644v-2.48h.644c.264 0 .478-.221.478-.495s-.214-.495-.478-.495h-.644v-2.48h.644c.264 0 .478-.221.478-.495s-.214-.495-.478-.495h-.644v-2.48h.644c.264 0 .478-.221.478-.495s-.214-.495-.478-.495h-.644v-2.48h.644c.264 0 .478-.221.478-.495s-.214-.495-.478-.495h-.644v-2.48h2.078v19.827zM24 2.416v17.79a.487.487 0 01-.478.495h-2.769c-.264 0-.478-.221-.478-.495s.214-.495.478-.495h2.291v-16.8h-4.998c-.264 0-.478-.221-.478-.495s.214-.495.478-.495h5.476c.264 0 .478.222.478.495zm-5.256 21.41v.088c0 .273-.214.495-.478.495s-.478-.221-.478-.495v-.088c0-.273.214-.495.478-.495s.478.221.478.495zm0-15.948v14.345c0 .273-.214.495-.478.495s-.478-.221-.478-.495V7.878c0-.273.214-.495.478-.495s.478.221.478.495zm-8.026-5.956l-4.253.001a.462.462 0 00-.28.114l-.001.001-.001.001c-.001.001 0 0 0 0l-.001.001-4.307 4.456a.503.503 0 00-.14.33v4.152c0 .273.214.495.478.495s.478-.221.478-.495V7.341h3.8a.486.486 0 00.478-.495V2.912h3.75c.264 0 .478-.221.478-.495s-.214-.495-.478-.495zM6.012 6.35H3.366l2.646-2.74v2.74z"/></symbol><symbol id="icon-engineering" viewBox="0 0 24 24"><path d="M22.886 0H5.202a.38.38 0 000 .758h17.684c.348 0 .632.283.632.632v12.253h-2.147a.38.38 0 000 .758h2.147v3.663a.632.632 0 01-.316.547.38.38 0 00.379.656c.428-.248.694-.709.694-1.203V1.39a1.39 1.39 0 00-1.39-1.389z"/><path d="M19.981 16.547c0 .766.623 1.389 1.389 1.389s1.389-.623 1.389-1.389-.623-1.389-1.389-1.389-1.389.623-1.389 1.389zm1.389-.631a.633.633 0 11-.001 1.265.633.633 0 01.001-1.265zM8.612 19.074a.38.38 0 00-.379-.379H1.665a.633.633 0 01-.632-.632V14.4h9.221a.38.38 0 000-.758H1.033V1.389c0-.348.283-.632.632-.632h2.021a.38.38 0 000-.758H1.665A1.39 1.39 0 00.276 1.388v16.674a1.39 1.39 0 001.389 1.389h6.568a.38.38 0 00.379-.379z"/><path d="M21.555 18.784l-3.342-1.003v-1.185a3.412 3.412 0 001.907-2.562l.421-2.738a1.095 1.095 0 00.384-1.795l-.738-.738-.522-1.565a2.397 2.397 0 00-2.037-1.629.886.886 0 00-.804-.517h-2.021a.883.883 0 00-.804.517 2.397 2.397 0 00-2.037 1.629l-.522 1.565-.738.738a1.096 1.096 0 00.384 1.795l.421 2.738a3.412 3.412 0 001.907 2.562v1.185l-3.342 1.003a2.385 2.385 0 00-1.71 2.299v2.033c0 .488.397.884.884.884h9.095a.38.38 0 000-.758h-5.937v-1.137a.38.38 0 00-.758 0v1.137h-2.4a.126.126 0 01-.126-.126v-2.033c0-.731.47-1.363 1.17-1.573l3.559-1.068h3.931l3.559 1.068c.7.21 1.17.842 1.17 1.573v2.033c0 .07-.057.126-.126.126h-2.4v-1.137a.38.38 0 00-.758 0v1.516c0 .209.17.379.379.379h2.779a.885.885 0 00.884-.884v-2.033a2.385 2.385 0 00-1.71-2.299zM11.474 10.61a.337.337 0 01-.238-.573l.801-.801a.381.381 0 00.092-.148l.55-1.65a1.64 1.64 0 011.238-1.092v1.611a.38.38 0 00.758 0V5.936c0-.07.057-.126.126-.126h2.021c.07 0 .126.057.126.126v2.021a.38.38 0 00.758 0V6.346a1.639 1.639 0 011.238 1.092l.55 1.65c.019.056.05.107.092.148l.801.801a.336.336 0 01-.238.573h-8.676zm5.275 6.316c.239 0 .475-.025.706-.074v.832h-3.284v-.832c.231.049.467.074.706.074h.431a.38.38 0 000-.758h-.431a2.639 2.639 0 01-2.622-2.249l-.392-2.551h7.9l-.392 2.551a2.639 2.639 0 01-2.622 2.249.38.38 0 000 .758zM3.181 15.158c-.766 0-1.389.623-1.389 1.389s.623 1.389 1.389 1.389h3.537c.766 0 1.389-.623 1.389-1.389s-.623-1.389-1.389-1.389H3.181zm4.168 1.389a.633.633 0 01-.632.632H3.18a.633.633 0 010-1.264h3.537c.348 0 .632.283.632.632z"/><path d="M7.476 2.021H3.939a.633.633 0 00-.632.632v1.516c0 .348.283.632.632.632h1.389v.903l-1.672.836a.629.629 0 00-.349.565v.193c0 .241.134.457.349.565l1.672.836v.903H3.939a.633.633 0 00-.632.632v1.516c0 .348.283.632.632.632h3.537a.633.633 0 00.632-.632v-.379h1.137a.38.38 0 000-.758H8.108v-.379a.633.633 0 00-.632-.632H6.087v-.903l1.672-.836a.629.629 0 00.349-.565v-.193a.629.629 0 00-.349-.565l-1.672-.836v-.903h1.39a.633.633 0 00.632-.632V3.79h12.379v3.663a.38.38 0 00.758 0V3.411a.38.38 0 00-.379-.379H8.109v-.379a.633.633 0 00-.632-.632zm-.127 8.337v1.263H4.065v-1.263h3.284zm0-3.176v.037l-1.642.821-1.642-.821v-.037l1.642-.821 1.642.821zm0-3.14H4.065V2.779h3.284v1.263zm1.516 12.505c0 .766.623 1.389 1.389 1.389s1.389-.623 1.389-1.389-.623-1.389-1.389-1.389-1.389.623-1.389 1.389zm2.021 0a.633.633 0 11-1.265-.001.633.633 0 011.265.001z"/></symbol><symbol id="icon-manufacturing" viewBox="0 0 24 24"><path d="M20.86 5.918a2.998 2.998 0 001.416-2.543c0-1.654-1.346-3-3-3s-3 1.346-3 3c0 1.072.568 2.013 1.416 2.543a4.503 4.503 0 00-2.916 4.207v1.5h-1.5v-4.5h-6v4.5h-4.5v4.5c-1.241 0-2.25 1.009-2.25 2.25s1.009 2.25 2.25 2.25v3h12.75v-3c.41 0 .794-.112 1.125-.304v1.804c0 .827.673 1.5 1.5 1.5.45 0 .85-.203 1.125-.518a1.49 1.49 0 001.125.518c.827 0 1.5-.673 1.5-1.5v-7.5h.375c.827 0 1.5-.673 1.5-1.5v-3a4.504 4.504 0 00-2.916-4.207zm-1.584.457c.254 0 .503.026.743.075a.746.746 0 01-1.485 0c.24-.049.488-.075.742-.075zm-2.25-3c0-1.241 1.009-2.25 2.25-2.25s2.25 1.009 2.25 2.25-1.009 2.25-2.25 2.25-2.25-1.009-2.25-2.25zm-.375 13.054a2.236 2.236 0 00-1.125-.304v-1.708c.222.129.476.208.75.208h.375v1.804zm-1.875-3.304v3h-.75v-1.5h-3v1.5h-.75v-3.75h.75v1.5h3v-1.5h.75v.75zM13.651 19.5c-.62 0-1.125-.505-1.125-1.125s.505-1.125 1.125-1.125 1.125.505 1.125 1.125-.505 1.125-1.125 1.125zm-1.875-1.125c0 .615.302 1.158.762 1.5h-1.523c.459-.342.762-.885.762-1.5s-.302-1.158-.762-1.5h1.523a1.87 1.87 0 00-.762 1.5zm-5.25-2.25h-1.5v-.75h1.5v.75zM4.651 17.25c.62 0 1.125.505 1.125 1.125S5.271 19.5 4.651 19.5s-1.125-.505-1.125-1.125.505-1.125 1.125-1.125zm1.875 1.125c0-.615-.302-1.158-.762-1.5h3.023c-.459.342-.762.885-.762 1.5s.302 1.158.762 1.5H5.764a1.87 1.87 0 00.762-1.5zm5.25-6h1.5v.75h-1.5v-.75zm-.75-.75h-1.5v-.75h1.5v.75zm-1.5.75v3.75h-.75v-3.75h.75zm.375 7.125c-.62 0-1.125-.505-1.125-1.125s.505-1.125 1.125-1.125 1.125.505 1.125 1.125-.505 1.125-1.125 1.125zm3.375-3.375h-1.5v-.75h1.5v.75zm-3.75-8.25h1.5v.75h-1.5v-.75zm-1.5 0h.75v1.5h3v-1.5h.75v3.75h-.75v-1.5h-3v1.5h-.75v-3.75zm-3 4.5h1.5v.75h-1.5v-.75zm-1.5 0h.75v1.5h3v-1.5h.75v3.75h-.75v-1.5h-3v1.5h-.75v-3.75zm-2.25 6c0-.827.673-1.5 1.5-1.5h.762c-.459.342-.762.885-.762 1.5s.302 1.158.762 1.5h-.762c-.827 0-1.5-.673-1.5-1.5zm13.5 4.5H3.526v-2.25h11.25v2.25zm.75-3h-.762c.459-.342.762-.885.762-1.5s-.302-1.158-.762-1.5h.762c.827 0 1.5.673 1.5 1.5s-.673 1.5-1.5 1.5zm7.5-6.75a.75.75 0 01-.75.75h-.375v-5.25h-.75v13.5a.75.75 0 01-1.5 0V12.75h-.75v9.375a.75.75 0 01-1.5 0v-2.509c.237-.356.375-.783.375-1.241s-.138-.885-.375-1.241V8.625h-.75v5.25h-.375a.75.75 0 01-.75-.75v-3c0-1.546.941-2.877 2.28-3.449a1.5 1.5 0 002.94 0 3.755 3.755 0 012.28 3.449v3z"/><path d="M13.651 18.75a.375.375 0 100-.75.375.375 0 000 .75zm-3.75 0a.375.375 0 100-.75.375.375 0 000 .75zm-5.25 0a.375.375 0 100-.75.375.375 0 000 .75zM6.526 4.875h-6v5.25h6v-5.25zm-3.75.75h1.5v.75h-1.5v-.75zm1.5 3.75h-1.5v-.75h1.5v.75zm1.5 0h-.75v-1.5h-3v1.5h-.75v-3.75h.75v1.5h3v-1.5h.75v3.75z"/></symbol><symbol id="icon-assembly" viewBox="0 0 24 24"><path d="M21.874 7.442c.234-.335.372-.741.372-1.179v-.611a.469.469 0 00.308-.44v-.145c0-1.307-1.063-2.371-2.371-2.371s-2.371 1.063-2.371 2.371v.145a.47.47 0 00.308.44v.611c0 .438.138.845.372 1.179a2.698 2.698 0 00-2.147 2.475h-2.724a.469.469 0 00-.469.469v2.906H11.25v-2.906a.469.469 0 00-.469-.469H7.406a.469.469 0 00-.469.469v2.906H5.249V7.038l3.267-3.267 2.181 2.181c.174.174.381.294.602.361v.792l-.98.98a.468.468 0 00-.137.331v.866a.469.469 0 00.938 0v-.671l.648-.648.648.648v.601a.469.469 0 00.938 0v-.795a.466.466 0 00-.137-.331l-.98-.98v-.825a1.437 1.437 0 00.93-1.351c0-.387-.151-.749-.424-1.023L9.341.505 9.338.503a1.727 1.727 0 00-2.436.004l-4.15 4.15a2.099 2.099 0 00-1.694 2.057v2.428a.469.469 0 00.938 0V8.46c.332.221.73.35 1.158.35s.826-.129 1.158-.35v5.002a1.892 1.892 0 00-.066.029 3.118 3.118 0 00-2.251.026v-.907a.469.469 0 00-.938 0v1.491a3.12 3.12 0 00-1.032 2.32v7.111c0 .259.21.469.469.469h21.375c.259 0 .469-.21.469-.469v-7.819a1.814 1.814 0 001.687-1.807v-3.822a2.7 2.7 0 00-2.153-2.64zm-1.716-.055a1.127 1.127 0 01-1.1-1.124v-.582h2.25v.582c0 .612-.491 1.111-1.1 1.124h-.051zm1.421-2.645h-.928V3.711c.461.16.816.549.928 1.031zm-1.865-1.03v1.031h-.928c.112-.481.467-.87.928-1.031zm-.328 10.517c.646 0 1.172.526 1.172 1.172s-.526 1.172-1.172 1.172H5.136c-.646 0-1.172-.526-1.172-1.172s.526-1.172 1.172-1.172h14.25zm-.422 3.281h.422c.112 0 .221-.009.328-.026v5.576h-.75v-5.551zM3.051 15.724c.067.432.266.821.553 1.125a.656.656 0 11-.553-1.124zm11.038-4.87h2.437v2.438h-2.437v-2.438zm-6.214 0h2.438v2.438H7.875v-2.438zM6.91 2.936c.197.197.434.34.693.423L5.079 5.883a2.111 2.111 0 00-1.121-1.107L6.49 2.245c.081.253.221.491.421.691zm5.32 1.992a.51.51 0 01-.869.36L9.18 3.107l.163-.163a1.72 1.72 0 00.423-.691l2.315 2.315a.506.506 0 01.149.36zM8.68 1.167a.786.786 0 01.038 1.073.38.38 0 00-.037.033.784.784 0 11-1.088-1.13.788.788 0 011.087.024zM3.154 7.869a1.159 1.159 0 11.001-2.315 1.159 1.159 0 01-.001 2.315zm-2.19 8.55a2.193 2.193 0 012.411-2.179 2.084 2.084 0 00-.255.539 1.595 1.595 0 00-1.56 1.593 1.596 1.596 0 002.833 1.003c.231.087.482.136.743.136h.209v5.551H.964V16.42zm17.063 6.642H6.283V19.76h5.486a.469.469 0 000-.938H6.283V17.51h11.744v5.551zm2.625 0v-5.974c.351-.264.617-.635.75-1.064v7.038h-.75zm2.437-9.157c0 .44-.327.804-.75.864v-3.985a.469.469 0 00-.938 0v3.996a2.113 2.113 0 00-2.016-1.487h-.422v-2.509a.469.469 0 00-.938 0v2.509h-.562v-2.906a.468.468 0 00-.186-.373 1.759 1.759 0 011.755-1.688h1.124l.025.001.025-.001h1.124c.969 0 1.757.788 1.757 1.757v3.822z"/><path d="M1.528 11.483a.469.469 0 10-.002-.937.469.469 0 00.002.937zm1.627-5.241a.47.47 0 00-.468.468.47.47 0 00.468.468c.123 0 .244-.05.331-.137a.472.472 0 000-.662.472.472 0 00-.331-.137zm4.64-4.192c.088.087.208.137.331.137s.244-.05.332-.137a.472.472 0 000-.662.47.47 0 00-.8.331c0 .123.05.244.137.331zm1.7 12.882a.472.472 0 00-.331.137.472.472 0 000 .662.468.468 0 10.331-.799zm-3 0a.472.472 0 00-.331.137.472.472 0 000 .662.472.472 0 00.662 0 .472.472 0 000-.662.472.472 0 00-.331-.137zm12 .937c.123 0 .244-.05.331-.137a.472.472 0 000-.662.472.472 0 00-.662 0 .472.472 0 000 .662.472.472 0 00.331.137zm-6-.937a.472.472 0 00-.331.137.472.472 0 000 .662.468.468 0 10.331-.799zm3 0a.472.472 0 00-.331.137.472.472 0 000 .662.468.468 0 10.331-.799zm-1.926 4.828c.123 0 .244-.05.331-.137a.472.472 0 000-.662.472.472 0 00-.662 0 .472.472 0 000 .662.472.472 0 00.331.137z"/></symbol><symbol id="icon-startup" viewBox="0 0 24 24"><path d="M17.552 21.375a1.123 1.123 0 01-1.125 1.125h-13.5a1.123 1.123 0 01-1.125-1.125V2.625A1.123 1.123 0 012.927 1.5h11.625v1.875A1.126 1.126 0 0015.677 4.5h1.875v7.875h.75v-8.25a.376.376 0 00-.11-.265l-3-3a.376.376 0 00-.265-.11h-12a1.876 1.876 0 00-1.875 1.875v18.75a1.876 1.876 0 001.875 1.875h13.5a1.876 1.876 0 001.875-1.875v-1.5h-.75v1.5zm-2.25-18V2.03l1.72 1.72h-1.345a.376.376 0 01-.375-.375z"/><path d="M3.302 3h.75v.75h-.75V3zm1.5 0h2.25v.75h-2.25V3zm-1.5 1.5h3.75v.75h-3.75V4.5zm19.826 6.424a1.878 1.878 0 00-2.652 0l-6.629 6.629a.372.372 0 00-.102.191l-.243 1.215-.715.715a1.125 1.125 0 101.591 1.591l.715-.715 1.215-.243a.374.374 0 00.191-.103l6.629-6.629a1.878 1.878 0 000-2.652zm-8.873 8.097l.177-.884 1.484 1.484-.884.177-.777-.777zm.653-1.468l4.508-4.508.531.53-4.508 4.508-.531-.53zm1.061 1.06l4.508-4.508.53.531-4.508 4.508-.53-.53zm3.978-6.099l.265-.265 1.591 1.591-.266.265-1.591-1.591zm-6.1 8.221a.383.383 0 01-.53 0 .394.394 0 01-.11-.266.374.374 0 01.11-.266l.53-.53.531.531-.531.53zm8.751-7.69l-.265.265-1.591-1.591.265-.265a1.14 1.14 0 01.796-.33 1.12 1.12 0 01.796.33 1.12 1.12 0 010 1.592zm-6.137-1.566a.376.376 0 000-.532l-3.712-3.713a.387.387 0 00-.528 0l-.982.983-.574.112L9.57 7.234a.39.39 0 00-.266-.109H7.868l-.949-.952a.376.376 0 00-.532 0L2.674 9.885a.376.376 0 000 .532l2.7 2.7a1.11 1.11 0 00.046 1.059 1.109 1.109 0 00.911.542 1.11 1.11 0 001.057 1.061 1.12 1.12 0 001.061 1.061 1.12 1.12 0 001.355 1.037c.212-.045.407-.15.561-.303l.397.397a1.138 1.138 0 00.795.33 1.111 1.111 0 00.795-.33c.198-.196.313-.46.323-.739a1.1 1.1 0 001.061-1.057 1.112 1.112 0 001.061-1.061 1.127 1.127 0 00.994-.717 1.126 1.126 0 00-.255-1.199l-.397-.397 1.324-1.324zM3.467 10.151l3.184-3.18.529.529L4 10.684l-.532-.532zm1.061 1.061l3.337-3.338h1.283l2.936 2.94a.374.374 0 010 .53.379.379 0 01-.528 0l-1.59-1.59a.386.386 0 00-.532 0 1.15 1.15 0 01-1.59 0l-.529.529c.136.134.292.246.461.334l-1.92 1.924-1.327-1.327zm5.7 4.639a1.127 1.127 0 00-.285 1.084l-.113.109a.375.375 0 01-.409.082.342.342 0 01-.12-.082.372.372 0 01-.004-.525l.003-.001.001-.003 1.061-1.057v-.004l-.533-.529-1.061 1.061c-.004 0-.004 0-.004.004a.383.383 0 01-.525-.004.38.38 0 010-.532L9.3 14.393l-.529-.529-1.061 1.061a.375.375 0 01-.614-.122.378.378 0 010-.288.375.375 0 01.082-.122l1.061-1.058-.529-.532-1.061 1.061a.384.384 0 01-.532 0 .373.373 0 010-.528l2.501-2.505c.008 0 .011.004.019.004.368.001.729-.107 1.035-.311l1.354 1.354a1.153 1.153 0 001.59 0 1.124 1.124 0 00.022-1.567l1.969 1.965-.113.109a1.118 1.118 0 00-1.406 1.024 1.11 1.11 0 00-1.061 1.072 1.093 1.093 0 00-1.062 1.05c-.277.014-.54.129-.739.323zm1.594 1.594a.386.386 0 01-.532 0l-.529-.532a.368.368 0 01-.105-.422.375.375 0 01.634-.107l.533.529a.376.376 0 010 .532zm1.061-1.061a.376.376 0 01-.532 0l-.529-.532a.373.373 0 01.528-.528l.533.529a.38.38 0 010 .532zm1.058-1.062a.379.379 0 01-.528 0l-.529-.533a.373.373 0 01.263-.638.38.38 0 01.266.109l.529.532a.373.373 0 010 .528zm1.061-1.061a.373.373 0 01-.528 0l-.533-.529a.376.376 0 01.532-.532l.529.533a.374.374 0 010 .53zm-3.049-5.7l.532-.533 3.18 3.184-.529.529-3.184-3.18zM8.177 20.25h3.75V21h-3.75v-.75zM3.302 16.5h3v.75h-3v-.75zm0 1.5h3.75v.75h-3.75V18zm0-3h2.25v.75h-2.25V15z"/></symbol></defs></svg>