<!-- Generated by IcoMoon.io -->
<svg version="1.1" xmlns="http://www.w3.org/2000/svg" width="24" height="24" viewBox="0 0 24 24">
<title>Assembly</title>
<path d="M21.874 7.442c0.234-0.335 0.372-0.741 0.372-1.179v-0.611c0.18-0.066 0.308-0.238 0.308-0.44v-0.145c0-1.307-1.063-2.371-2.371-2.371s-2.371 1.063-2.371 2.371v0.145c0 0.202 0.129 0.374 0.308 0.44v0.611c0 0.438 0.138 0.845 0.372 1.179-1.175 0.241-2.073 1.248-2.147 2.475h-2.724c-0.259 0-0.469 0.21-0.469 0.469v2.906h-1.902v-2.906c0-0.259-0.21-0.469-0.469-0.469h-3.375c-0.259 0-0.469 0.21-0.469 0.469v2.906h-1.688v-6.254l3.267-3.267 2.181 2.181c0.174 0.174 0.381 0.294 0.602 0.361v0.792l-0.98 0.98c-0.088 0.088-0.137 0.207-0.137 0.331v0.866c0 0.259 0.21 0.469 0.469 0.469s0.469-0.21 0.469-0.469v-0.671l0.648-0.648 0.648 0.648v0.601c0 0.259 0.21 0.469 0.469 0.469s0.469-0.21 0.469-0.469v-0.795c0-0.124-0.049-0.244-0.137-0.331l-0.98-0.98v-0.825c0.185-0.070 0.358-0.179 0.506-0.328 0.273-0.273 0.424-0.636 0.424-1.023s-0.151-0.749-0.424-1.023l-3.402-3.402c-0.001-0.001-0.002-0.001-0.003-0.002-0.673-0.669-1.764-0.667-2.436 0.004l-4.15 4.15c-0.964 0.188-1.694 1.038-1.694 2.057v2.428c0 0.259 0.21 0.469 0.469 0.469s0.469-0.21 0.469-0.469v-0.682c0.332 0.221 0.73 0.35 1.158 0.35s0.826-0.129 1.158-0.35v5.002c-0.022 0.009-0.044 0.019-0.066 0.029-0.349-0.13-0.716-0.197-1.093-0.197-0.409 0-0.8 0.080-1.158 0.223v-0.907c0-0.259-0.21-0.469-0.469-0.469s-0.469 0.21-0.469 0.469v1.491c-0.634 0.573-1.032 1.401-1.032 2.32v7.111c0 0.259 0.21 0.469 0.469 0.469h21.375c0.259 0 0.469-0.21 0.469-0.469v-7.819c0.941-0.064 1.687-0.85 1.687-1.807v-3.822c0-1.3-0.926-2.388-2.153-2.64zM20.158 7.387c-0.609-0.014-1.1-0.513-1.1-1.124v-0.582h2.25v0.582c0 0.612-0.491 1.111-1.1 1.124h-0.051zM21.579 4.742h-0.928v-1.031c0.461 0.16 0.816 0.549 0.928 1.031zM19.714 3.712v1.031h-0.928c0.112-0.481 0.467-0.87 0.928-1.031zM19.386 14.229c0.646 0 1.172 0.526 1.172 1.172s-0.526 1.172-1.172 1.172h-14.25c-0.646 0-1.172-0.526-1.172-1.172s0.526-1.172 1.172-1.172h14.25zM18.964 17.51h0.422c0.112 0 0.221-0.009 0.328-0.026v5.576h-0.75v-5.551zM3.051 15.724c0.067 0.432 0.266 0.821 0.553 1.125-0.12 0.113-0.28 0.179-0.45 0.179-0.362 0-0.656-0.294-0.656-0.656 0-0.327 0.24-0.598 0.553-0.647zM14.089 10.854h2.437v2.438h-2.437v-2.438zM7.875 10.854h2.438v2.438h-2.438v-2.438zM6.91 2.936c0.197 0.197 0.434 0.34 0.693 0.423l-2.524 2.524c-0.216-0.499-0.619-0.897-1.121-1.107l2.532-2.531c0.081 0.253 0.221 0.491 0.421 0.691zM12.23 4.928c0 0.136-0.053 0.264-0.149 0.36-0.198 0.198-0.521 0.198-0.72 0l-2.181-2.181 0.163-0.163c0.197-0.197 0.34-0.433 0.423-0.691l2.315 2.315c0.096 0.096 0.149 0.224 0.149 0.36zM8.68 1.167c0.149 0.149 0.231 0.346 0.231 0.557 0 0.192-0.069 0.372-0.193 0.516-0.013 0.010-0.025 0.021-0.037 0.033-0.305 0.305-0.802 0.305-1.108 0s-0.305-0.802 0-1.108c0.007-0.007 0.014-0.015 0.020-0.022 0.309-0.282 0.789-0.274 1.087 0.024zM3.154 7.869c-0.638 0-1.158-0.519-1.158-1.158s0.519-1.158 1.158-1.158c0.639 0 1.158 0.519 1.158 1.158s-0.519 1.158-1.158 1.158zM0.964 16.419c0-1.208 0.983-2.19 2.19-2.19 0.075 0 0.148 0.004 0.221 0.011-0.109 0.165-0.196 0.346-0.255 0.539-0.863 0.018-1.56 0.725-1.56 1.593 0 0.879 0.715 1.594 1.594 1.594 0.488 0 0.94-0.22 1.239-0.591 0.231 0.087 0.482 0.136 0.743 0.136h0.209v5.551h-4.381v-6.642zM18.027 23.061h-11.744v-3.301h5.486c0.259 0 0.469-0.21 0.469-0.469s-0.21-0.469-0.469-0.469h-5.486v-1.312h11.744v5.551zM20.652 23.061v-5.974c0.351-0.264 0.617-0.635 0.75-1.064v7.038h-0.75zM23.089 13.904c0 0.44-0.327 0.804-0.75 0.864v-3.985c0-0.259-0.21-0.469-0.469-0.469s-0.469 0.21-0.469 0.469v3.996c-0.266-0.86-1.069-1.487-2.016-1.487h-0.422v-2.509c0-0.259-0.21-0.469-0.469-0.469s-0.469 0.21-0.469 0.469v2.509h-0.562v-2.906c0-0.152-0.073-0.287-0.186-0.373 0.036-0.937 0.81-1.688 1.755-1.688h1.124c0.008 0 0.017 0.001 0.025 0.001s0.017-0 0.025-0.001h1.124c0.969 0 1.757 0.788 1.757 1.757v3.822z"></path>
<path d="M1.528 11.483c0.123 0 0.244-0.050 0.331-0.138s0.137-0.208 0.137-0.331c0-0.123-0.050-0.244-0.137-0.331s-0.208-0.137-0.331-0.137c-0.123 0-0.244 0.050-0.331 0.137s-0.137 0.208-0.137 0.331c0 0.123 0.050 0.244 0.137 0.331s0.208 0.138 0.331 0.138z"></path>
<path d="M3.155 6.242c-0.124 0-0.244 0.050-0.331 0.137s-0.137 0.208-0.137 0.331c0 0.124 0.050 0.244 0.137 0.331s0.208 0.137 0.331 0.137c0.123 0 0.244-0.050 0.331-0.137s0.137-0.208 0.137-0.331c0-0.123-0.050-0.244-0.137-0.331s-0.208-0.137-0.331-0.137z"></path>
<path d="M7.795 2.050c0.088 0.087 0.208 0.137 0.331 0.137s0.244-0.050 0.332-0.137c0.087-0.087 0.137-0.208 0.137-0.331s-0.050-0.244-0.137-0.331c-0.088-0.087-0.208-0.137-0.332-0.137s-0.244 0.050-0.331 0.137c-0.087 0.087-0.137 0.208-0.137 0.331s0.050 0.244 0.137 0.331z"></path>
<path d="M9.495 14.932c-0.123 0-0.244 0.050-0.331 0.137s-0.137 0.208-0.137 0.331 0.050 0.244 0.137 0.331c0.087 0.088 0.208 0.137 0.331 0.137s0.244-0.050 0.331-0.137c0.087-0.087 0.137-0.208 0.137-0.331s-0.050-0.244-0.137-0.331c-0.087-0.087-0.208-0.137-0.331-0.137z"></path>
<path d="M6.495 14.932c-0.123 0-0.244 0.050-0.331 0.137s-0.137 0.208-0.137 0.331c0 0.124 0.050 0.244 0.137 0.331s0.208 0.137 0.331 0.137c0.123 0 0.244-0.050 0.331-0.137s0.137-0.208 0.137-0.331c0-0.123-0.050-0.244-0.137-0.331s-0.208-0.137-0.331-0.137z"></path>
<path d="M18.495 15.869c0.123 0 0.244-0.050 0.331-0.137s0.137-0.208 0.137-0.331c0-0.123-0.050-0.244-0.137-0.331s-0.208-0.137-0.331-0.137c-0.123 0-0.244 0.050-0.331 0.137s-0.137 0.208-0.137 0.331c0 0.124 0.050 0.244 0.137 0.331s0.208 0.137 0.331 0.137z"></path>
<path d="M12.495 14.932c-0.123 0-0.244 0.050-0.331 0.137s-0.137 0.208-0.137 0.331 0.050 0.244 0.137 0.331c0.087 0.088 0.208 0.137 0.331 0.137s0.244-0.050 0.331-0.137c0.087-0.087 0.137-0.208 0.137-0.331s-0.050-0.244-0.137-0.331-0.208-0.137-0.331-0.137z"></path>
<path d="M15.495 14.932c-0.123 0-0.244 0.050-0.331 0.137s-0.137 0.208-0.137 0.331 0.050 0.244 0.137 0.331c0.087 0.088 0.208 0.137 0.331 0.137s0.244-0.050 0.331-0.137c0.087-0.087 0.137-0.208 0.137-0.331s-0.050-0.244-0.137-0.331c-0.087-0.087-0.208-0.137-0.331-0.137z"></path>
<path d="M13.569 19.76c0.123 0 0.244-0.050 0.331-0.137s0.137-0.208 0.137-0.331c0-0.123-0.050-0.244-0.137-0.331s-0.208-0.137-0.331-0.137c-0.123 0-0.244 0.050-0.331 0.137s-0.137 0.208-0.137 0.331c0 0.124 0.050 0.244 0.137 0.331s0.208 0.137 0.331 0.137z"></path>
</svg>
