<!-- Generated by IcoMoon.io -->
<svg version="1.1" xmlns="http://www.w3.org/2000/svg" width="24" height="24" viewBox="0 0 24 24">
<title>Engineering</title>
<path d="M22.886 0h-17.684c-0.209 0-0.379 0.17-0.379 0.379s0.17 0.379 0.379 0.379h17.684c0.348 0 0.632 0.283 0.632 0.632v12.253h-2.147c-0.209 0-0.379 0.17-0.379 0.379s0.17 0.379 0.379 0.379h2.147v3.663c0 0.225-0.121 0.435-0.316 0.547-0.181 0.105-0.243 0.337-0.138 0.518 0.070 0.121 0.197 0.189 0.328 0.189 0.064 0 0.13-0.016 0.189-0.051 0.428-0.248 0.694-0.709 0.694-1.203v-16.674c-0-0.766-0.623-1.389-1.39-1.389z"></path>
<path d="M19.981 16.547c0 0.766 0.623 1.389 1.389 1.389s1.389-0.623 1.389-1.389c0-0.766-0.623-1.389-1.389-1.389s-1.389 0.623-1.389 1.389zM21.37 15.916c0.348 0 0.632 0.283 0.632 0.632s-0.283 0.632-0.632 0.632c-0.348 0-0.632-0.283-0.632-0.632s0.283-0.632 0.632-0.632z"></path>
<path d="M8.612 19.074c0-0.209-0.17-0.379-0.379-0.379h-6.568c-0.348 0-0.632-0.283-0.632-0.632v-3.663h9.221c0.209 0 0.379-0.17 0.379-0.379s-0.17-0.379-0.379-0.379h-9.221v-12.253c0-0.348 0.283-0.632 0.632-0.632h2.021c0.209 0 0.379-0.17 0.379-0.379s-0.17-0.379-0.379-0.379h-2.021c-0.766 0-1.389 0.623-1.389 1.389v16.674c0 0.766 0.623 1.389 1.389 1.389h6.568c0.209 0 0.379-0.17 0.379-0.379z"></path>
<path d="M21.555 18.784l-3.342-1.003v-1.185c0.271-0.129 0.526-0.294 0.757-0.492 0.618-0.53 1.026-1.265 1.15-2.070l0.421-2.738c0.411-0.157 0.704-0.556 0.704-1.022 0-0.292-0.114-0.567-0.32-0.773 0 0 0 0 0-0l-0.738-0.738-0.522-1.565c-0.302-0.905-1.103-1.536-2.037-1.629-0.14-0.305-0.448-0.517-0.804-0.517h-2.021c-0.357 0-0.665 0.212-0.804 0.517-0.934 0.093-1.735 0.724-2.037 1.629l-0.522 1.565-0.738 0.738c-0.207 0.207-0.32 0.481-0.32 0.773 0 0.466 0.293 0.864 0.704 1.022l0.421 2.738c0.124 0.805 0.532 1.54 1.15 2.070 0.231 0.198 0.486 0.363 0.757 0.492v1.185l-3.342 1.003c-1.023 0.307-1.71 1.231-1.71 2.299v2.033c0 0.488 0.397 0.884 0.884 0.884h9.095c0.209 0 0.379-0.17 0.379-0.379s-0.17-0.379-0.379-0.379h-5.937v-1.137c0-0.209-0.17-0.379-0.379-0.379s-0.379 0.17-0.379 0.379v1.137h-2.4c-0.070 0-0.126-0.057-0.126-0.126v-2.033c0-0.731 0.47-1.363 1.17-1.573l3.559-1.068h3.931l3.559 1.068c0.7 0.21 1.17 0.842 1.17 1.573v2.033c0 0.070-0.057 0.126-0.126 0.126h-2.4v-1.137c0-0.209-0.17-0.379-0.379-0.379s-0.379 0.17-0.379 0.379v1.516c0 0.209 0.17 0.379 0.379 0.379h2.779c0.488 0 0.884-0.397 0.884-0.884v-2.033c0-1.068-0.687-1.992-1.71-2.299zM11.474 10.61c-0.185 0-0.336-0.151-0.336-0.336 0-0.090 0.035-0.174 0.098-0.237l0.801-0.801c0.042-0.042 0.073-0.092 0.092-0.148l0.55-1.65c0.189-0.568 0.667-0.979 1.238-1.092v1.611c0 0.209 0.17 0.379 0.379 0.379s0.379-0.17 0.379-0.379v-2.021c0-0.070 0.057-0.126 0.126-0.126h2.021c0.070 0 0.126 0.057 0.126 0.126v2.021c0 0.209 0.17 0.379 0.379 0.379s0.379-0.17 0.379-0.379v-1.611c0.571 0.113 1.049 0.523 1.238 1.092l0.55 1.65c0.019 0.056 0.050 0.107 0.092 0.148l0.801 0.801c0.062 0.062 0.098 0.149 0.098 0.237 0 0.185-0.15 0.336-0.336 0.336v-0h-8.676zM16.749 16.926c0.239 0 0.475-0.025 0.706-0.074v0.832h-3.284v-0.832c0.231 0.049 0.467 0.074 0.706 0.074h0.431c0.209 0 0.379-0.17 0.379-0.379s-0.17-0.379-0.379-0.379h-0.431c-1.319 0-2.421-0.946-2.622-2.249l-0.392-2.551h7.9l-0.392 2.551c-0.201 1.303-1.303 2.249-2.622 2.249-0.209 0-0.379 0.17-0.379 0.379s0.17 0.379 0.379 0.379z"></path>
<path d="M3.181 15.158c-0.766 0-1.389 0.623-1.389 1.389s0.623 1.389 1.389 1.389h3.537c0.766 0 1.389-0.623 1.389-1.389s-0.623-1.389-1.389-1.389h-3.537zM7.349 16.547c0 0.348-0.283 0.632-0.632 0.632h-3.537c-0.348 0-0.632-0.283-0.632-0.632s0.283-0.632 0.632-0.632h3.537c0.348 0 0.632 0.283 0.632 0.632z"></path>
<path d="M7.476 2.021h-3.537c-0.348 0-0.632 0.283-0.632 0.632v1.516c0 0.348 0.283 0.632 0.632 0.632h1.389v0.903l-1.672 0.836c-0.215 0.108-0.349 0.324-0.349 0.565v0.193c0 0.241 0.134 0.457 0.349 0.565l1.672 0.836v0.903h-1.389c-0.348 0-0.632 0.283-0.632 0.632v1.516c0 0.348 0.283 0.632 0.632 0.632h3.537c0.348 0 0.632-0.283 0.632-0.632v-0.379h1.137c0.209 0 0.379-0.17 0.379-0.379s-0.17-0.379-0.379-0.379h-1.137v-0.379c0-0.348-0.283-0.632-0.632-0.632h-1.389v-0.903l1.672-0.836c0.215-0.108 0.349-0.324 0.349-0.565v-0.193c0-0.241-0.134-0.457-0.349-0.565l-1.672-0.836v-0.903h1.39c0.348 0 0.632-0.283 0.632-0.632v-0.379h12.379v3.663c0 0.209 0.17 0.379 0.379 0.379s0.379-0.17 0.379-0.379v-4.042c0-0.209-0.17-0.379-0.379-0.379h-12.758v-0.379c0-0.348-0.283-0.632-0.632-0.632zM7.349 10.358v1.263h-3.284v-1.263h3.284zM7.349 7.182v0.037l-1.642 0.821-1.642-0.821v-0.037l1.642-0.821 1.642 0.821zM7.349 4.042h-3.284v-1.263h3.284v1.263z"></path>
<path d="M8.865 16.547c0 0.766 0.623 1.389 1.389 1.389s1.389-0.623 1.389-1.389c0-0.766-0.623-1.389-1.389-1.389s-1.389 0.623-1.389 1.389zM10.886 16.547c0 0.348-0.283 0.632-0.632 0.632s-0.632-0.283-0.632-0.632c0-0.348 0.283-0.632 0.632-0.632s0.632 0.283 0.632 0.632z"></path>
</svg>
