<!-- Generated by IcoMoon.io -->
<svg version="1.1" xmlns="http://www.w3.org/2000/svg" width="24" height="24" viewBox="0 0 24 24">
<title>fax</title>
<path d="M19.5 24h-15.75c-0.829 0-1.5-0.672-1.5-1.5v-18c0-0.829 0.671-1.5 1.5-1.5v18c0 0.828 0.672 1.5 1.5 1.5h3c0.829 0 1.5-0.672 1.5-1.5v-18h9.75c0.829 0 1.5 0.672 1.5 1.5v18c0 0.828-0.671 1.5-1.5 1.5zM15.75 21.75h1.5v-1.5h-1.5v1.5zM15.75 19.5h1.5v-1.5h-1.5v1.5zM15.75 17.25h1.5v-1.5h-1.5v1.5zM15.75 15h1.5v-1.5h-1.5v1.5zM13.5 21.75h1.5v-1.5h-1.5v1.5zM13.5 19.5h1.5v-1.5h-1.5v1.5zM13.5 17.25h1.5v-1.5h-1.5v1.5zM13.5 15h1.5v-1.5h-1.5v1.5zM19.5 5.25c0-0.415-0.335-0.75-0.75-0.75h-6.75c-0.414 0-0.75 0.335-0.75 0.75v3c0 0.414 0.336 0.75 0.75 0.75h6.75c0.415 0 0.75-0.336 0.75-0.75v-3zM19.5 13.5h-1.5v1.5h1.5v-1.5zM19.5 15.75h-1.5v1.5h1.5v-1.5zM19.5 18h-1.5v1.5h1.5v-1.5zM19.5 20.25h-1.5v1.5h1.5v-1.5zM8.25 21.75h-3c-0.414 0-0.75-0.335-0.75-0.75v-18.75c0-0.415 0.336-0.75 0.75-0.75h1.454v-1.5h0.796v1.5h0.75c0.414 0 0.75 0.335 0.75 0.75v18.75c0 0.415-0.336 0.75-0.75 0.75z"></path>
</svg>
