<!-- Generated by IcoMoon.io -->
<svg version="1.1" xmlns="http://www.w3.org/2000/svg" width="24" height="24" viewBox="0 0 24 24">
<title>Manufacturing</title>
<path d="M20.86 5.918c0.849-0.531 1.416-1.471 1.416-2.543 0-1.654-1.346-3-3-3s-3 1.346-3 3c0 1.072 0.568 2.013 1.416 2.543-1.701 0.643-2.916 2.283-2.916 4.207v1.5h-1.5v-4.5h-6v4.5h-4.5v4.5c-1.241 0-2.25 1.009-2.25 2.25s1.009 2.25 2.25 2.25v3h12.75v-3c0.41 0 0.794-0.112 1.125-0.304v1.804c0 0.827 0.673 1.5 1.5 1.5 0.45 0 0.85-0.203 1.125-0.518 0.275 0.315 0.675 0.518 1.125 0.518 0.827 0 1.5-0.673 1.5-1.5v-7.5h0.375c0.827 0 1.5-0.673 1.5-1.5v-3c0-1.923-1.215-3.564-2.916-4.207zM19.276 6.375c0.254 0 0.503 0.026 0.743 0.075-0.038 0.378-0.354 0.675-0.743 0.675s-0.705-0.297-0.742-0.675c0.24-0.049 0.488-0.075 0.742-0.075zM17.026 3.375c0-1.241 1.009-2.25 2.25-2.25s2.25 1.009 2.25 2.25c0 1.241-1.009 2.25-2.25 2.25s-2.25-1.009-2.25-2.25zM16.651 16.429c-0.331-0.192-0.715-0.304-1.125-0.304v-1.708c0.222 0.129 0.476 0.208 0.75 0.208h0.375v1.804zM14.776 13.125v3h-0.75v-1.5h-3v1.5h-0.75v-3.75h0.75v1.5h3v-1.5h0.75v0.75zM13.651 19.5c-0.62 0-1.125-0.505-1.125-1.125s0.505-1.125 1.125-1.125c0.62 0 1.125 0.505 1.125 1.125s-0.505 1.125-1.125 1.125zM11.776 18.375c0 0.615 0.302 1.158 0.762 1.5h-1.523c0.459-0.342 0.762-0.885 0.762-1.5s-0.302-1.158-0.762-1.5h1.523c-0.459 0.342-0.762 0.885-0.762 1.5zM6.526 16.125h-1.5v-0.75h1.5v0.75zM4.651 17.25c0.62 0 1.125 0.505 1.125 1.125s-0.505 1.125-1.125 1.125c-0.62 0-1.125-0.505-1.125-1.125s0.505-1.125 1.125-1.125zM6.526 18.375c0-0.615-0.302-1.158-0.762-1.5h3.023c-0.459 0.342-0.762 0.885-0.762 1.5s0.302 1.158 0.762 1.5h-3.023c0.459-0.342 0.762-0.885 0.762-1.5zM11.776 12.375h1.5v0.75h-1.5v-0.75zM11.026 11.625h-1.5v-0.75h1.5v0.75zM9.526 12.375v3.75h-0.75v-3.75h0.75zM9.901 19.5c-0.62 0-1.125-0.505-1.125-1.125s0.505-1.125 1.125-1.125c0.62 0 1.125 0.505 1.125 1.125s-0.505 1.125-1.125 1.125zM13.276 16.125h-1.5v-0.75h1.5v0.75zM9.526 7.875h1.5v0.75h-1.5v-0.75zM8.026 7.875h0.75v1.5h3v-1.5h0.75v3.75h-0.75v-1.5h-3v1.5h-0.75v-3.75zM5.026 12.375h1.5v0.75h-1.5v-0.75zM3.526 12.375h0.75v1.5h3v-1.5h0.75v3.75h-0.75v-1.5h-3v1.5h-0.75v-3.75zM1.276 18.375c0-0.827 0.673-1.5 1.5-1.5h0.762c-0.459 0.342-0.762 0.885-0.762 1.5s0.302 1.158 0.762 1.5h-0.762c-0.827 0-1.5-0.673-1.5-1.5zM14.776 22.875h-11.25v-2.25h11.25v2.25zM15.526 19.875h-0.762c0.459-0.342 0.762-0.885 0.762-1.5s-0.302-1.158-0.762-1.5h0.762c0.827 0 1.5 0.673 1.5 1.5s-0.673 1.5-1.5 1.5zM23.026 13.125c0 0.414-0.336 0.75-0.75 0.75h-0.375v-5.25h-0.75v13.5c0 0.414-0.336 0.75-0.75 0.75s-0.75-0.336-0.75-0.75v-9.375h-0.75v9.375c0 0.414-0.336 0.75-0.75 0.75s-0.75-0.336-0.75-0.75v-2.509c0.237-0.356 0.375-0.783 0.375-1.241s-0.138-0.885-0.375-1.241v-8.509h-0.75v5.25h-0.375c-0.414 0-0.75-0.336-0.75-0.75v-3c0-1.546 0.941-2.877 2.28-3.449 0.139 0.684 0.745 1.199 1.47 1.199s1.33-0.516 1.47-1.199c1.339 0.573 2.28 1.903 2.28 3.449v3z"></path>
<path d="M13.651 18.75c0.207 0 0.375-0.168 0.375-0.375s-0.168-0.375-0.375-0.375c-0.207 0-0.375 0.168-0.375 0.375s0.168 0.375 0.375 0.375z"></path>
<path d="M9.901 18.75c0.207 0 0.375-0.168 0.375-0.375s-0.168-0.375-0.375-0.375c-0.207 0-0.375 0.168-0.375 0.375s0.168 0.375 0.375 0.375z"></path>
<path d="M4.651 18.75c0.207 0 0.375-0.168 0.375-0.375s-0.168-0.375-0.375-0.375c-0.207 0-0.375 0.168-0.375 0.375s0.168 0.375 0.375 0.375z"></path>
<path d="M6.526 4.875h-6v5.25h6v-5.25zM2.776 5.625h1.5v0.75h-1.5v-0.75zM4.276 9.375h-1.5v-0.75h1.5v0.75zM5.776 9.375h-0.75v-1.5h-3v1.5h-0.75v-3.75h0.75v1.5h3v-1.5h0.75v3.75z"></path>
</svg>
