<!-- Generated by IcoMoon.io -->
<svg version="1.1" xmlns="http://www.w3.org/2000/svg" width="24" height="24" viewBox="0 0 24 24">
<title>Startup</title>
<path d="M17.552 21.375c0 0.298-0.119 0.585-0.33 0.795s-0.497 0.33-0.795 0.33h-13.5c-0.298 0-0.585-0.119-0.795-0.33s-0.33-0.497-0.33-0.795v-18.75c0-0.298 0.119-0.585 0.33-0.795s0.497-0.33 0.795-0.33h11.625v1.875c0 0.298 0.119 0.585 0.329 0.795s0.497 0.33 0.796 0.33h1.875v7.875h0.75v-8.25c-0-0.099-0.040-0.195-0.11-0.265l-3-3c-0.070-0.070-0.166-0.11-0.265-0.11h-12c-0.497 0.001-0.974 0.198-1.325 0.55s-0.549 0.828-0.55 1.325v18.75c0.001 0.497 0.198 0.974 0.55 1.325s0.828 0.549 1.325 0.55h13.5c0.497-0.001 0.974-0.198 1.325-0.55s0.549-0.828 0.55-1.325v-1.5h-0.75v1.5zM15.302 3.375v-1.345l1.72 1.72h-1.345c-0.099 0-0.195-0.040-0.265-0.11s-0.11-0.166-0.11-0.265z"></path>
<path d="M3.302 3h0.75v0.75h-0.75v-0.75z"></path>
<path d="M4.802 3h2.25v0.75h-2.25v-0.75z"></path>
<path d="M3.302 4.5h3.75v0.75h-3.75v-0.75z"></path>
<path d="M23.128 10.924c-0.352-0.351-0.829-0.548-1.326-0.548s-0.974 0.197-1.326 0.548l-6.629 6.629c-0.052 0.052-0.088 0.119-0.102 0.191l-0.243 1.215-0.715 0.715c-0.106 0.104-0.19 0.228-0.248 0.365s-0.088 0.284-0.088 0.432c-0.001 0.149 0.028 0.296 0.085 0.433s0.14 0.262 0.245 0.367c0.105 0.105 0.23 0.188 0.367 0.245s0.284 0.085 0.433 0.085c0.148-0.001 0.295-0.031 0.432-0.088s0.261-0.142 0.365-0.248l0.715-0.715 1.215-0.243c0.072-0.015 0.139-0.050 0.191-0.103l6.629-6.629c0.351-0.352 0.548-0.829 0.548-1.326s-0.197-0.974-0.548-1.326zM14.255 19.021l0.177-0.884 1.484 1.484-0.884 0.177-0.777-0.777zM14.908 17.553l4.508-4.508 0.531 0.53-4.508 4.508-0.531-0.53zM15.969 18.613l4.508-4.508 0.53 0.531-4.508 4.508-0.53-0.53zM19.947 12.514l0.265-0.265 1.591 1.591-0.266 0.265-1.591-1.591zM13.847 20.735c-0.071 0.068-0.166 0.106-0.265 0.106s-0.194-0.038-0.265-0.106c-0.035-0.035-0.063-0.076-0.081-0.122s-0.029-0.094-0.029-0.144 0.010-0.098 0.029-0.144c0.019-0.046 0.047-0.087 0.081-0.122l0.53-0.53 0.531 0.531-0.531 0.53zM22.598 13.045l-0.265 0.265-1.591-1.591 0.265-0.265c0.104-0.104 0.229-0.187 0.365-0.244s0.283-0.086 0.431-0.086 0.294 0.029 0.431 0.086c0.136 0.057 0.261 0.139 0.365 0.244s0.187 0.229 0.244 0.365c0.057 0.137 0.086 0.283 0.086 0.431s-0.029 0.294-0.086 0.431c-0.057 0.137-0.139 0.261-0.244 0.365z"></path>
<path d="M16.461 11.479c0.070-0.071 0.11-0.167 0.11-0.266s-0.039-0.195-0.11-0.266l-3.712-3.713c-0.072-0.067-0.166-0.104-0.264-0.104s-0.193 0.037-0.264 0.104l-0.982 0.983-0.574 0.112-1.095-1.095c-0.072-0.069-0.167-0.108-0.266-0.109h-1.436l-0.949-0.952c-0.071-0.070-0.167-0.11-0.266-0.11s-0.195 0.039-0.266 0.11l-3.713 3.712c-0.070 0.071-0.11 0.167-0.11 0.266s0.039 0.195 0.11 0.266l2.7 2.7c-0.081 0.166-0.119 0.35-0.111 0.535s0.062 0.365 0.157 0.524 0.228 0.292 0.387 0.386c0.159 0.095 0.339 0.148 0.524 0.156 0.010 0.277 0.125 0.54 0.322 0.735 0.196 0.197 0.458 0.313 0.735 0.326 0.014 0.277 0.13 0.539 0.326 0.735s0.458 0.312 0.735 0.326c0.012 0.216 0.087 0.425 0.214 0.6s0.304 0.31 0.506 0.387c0.202 0.078 0.423 0.095 0.635 0.050s0.407-0.15 0.561-0.303l0.397 0.397c0.104 0.105 0.228 0.188 0.365 0.244s0.283 0.086 0.43 0.086c0.148 0 0.294-0.029 0.43-0.086s0.26-0.14 0.365-0.244c0.198-0.196 0.313-0.46 0.323-0.739 0.277-0.010 0.541-0.125 0.737-0.321s0.312-0.459 0.324-0.736c0.278-0.012 0.54-0.128 0.737-0.324s0.312-0.459 0.324-0.737c0.217-0.010 0.427-0.084 0.604-0.211s0.312-0.303 0.39-0.506c0.078-0.203 0.096-0.424 0.051-0.637s-0.152-0.408-0.306-0.562l-0.397-0.397 1.324-1.324zM3.467 10.151l3.184-3.18 0.529 0.529-3.18 3.184-0.532-0.532zM4.528 11.212l3.337-3.338h1.283l2.936 2.94c0.036 0.034 0.064 0.075 0.083 0.121s0.029 0.094 0.029 0.144c0 0.049-0.010 0.098-0.029 0.144s-0.048 0.087-0.083 0.121c-0.071 0.069-0.166 0.107-0.264 0.107s-0.193-0.038-0.264-0.107l-1.59-1.59c-0.072-0.068-0.167-0.105-0.266-0.105s-0.194 0.038-0.266 0.105c-0.214 0.205-0.499 0.319-0.795 0.319s-0.581-0.114-0.795-0.319l-0.529 0.529c0.136 0.134 0.292 0.246 0.461 0.334l-1.92 1.924-1.327-1.327zM10.228 15.851c-0.138 0.14-0.237 0.314-0.287 0.504s-0.049 0.39 0.002 0.58l-0.113 0.109c-0.035 0.035-0.076 0.063-0.122 0.082s-0.095 0.028-0.144 0.027c-0.049 0.001-0.097-0.008-0.143-0.027s-0.086-0.046-0.12-0.082c-0.070-0.069-0.109-0.163-0.11-0.262s0.038-0.193 0.106-0.263c0.001 0 0.002-0 0.003-0.001s0.001-0.002 0.001-0.003l1.061-1.057v-0.004l-0.533-0.529-1.061 1.061c-0.004 0-0.004 0-0.004 0.004-0.072 0.065-0.166 0.101-0.263 0.101s-0.191-0.038-0.262-0.105c-0.070-0.071-0.109-0.167-0.109-0.266s0.039-0.195 0.109-0.266l1.061-1.061-0.529-0.529-1.061 1.061c-0.035 0.035-0.076 0.063-0.122 0.082s-0.095 0.029-0.144 0.029c-0.049 0-0.098-0.010-0.144-0.029s-0.087-0.047-0.122-0.082c-0.035-0.035-0.063-0.076-0.082-0.122s-0.029-0.095-0.029-0.144 0.010-0.098 0.029-0.144c0.019-0.046 0.047-0.087 0.082-0.122l1.061-1.058-0.529-0.532-1.061 1.061c-0.072 0.069-0.167 0.107-0.266 0.107s-0.195-0.038-0.266-0.107c-0.070-0.070-0.109-0.165-0.109-0.264s0.039-0.194 0.109-0.264l2.501-2.505c0.008 0 0.011 0.004 0.019 0.004 0.368 0.001 0.729-0.107 1.035-0.311l1.354 1.354c0.214 0.204 0.499 0.318 0.795 0.318s0.581-0.114 0.795-0.318c0.207-0.207 0.325-0.487 0.329-0.779s-0.106-0.575-0.307-0.788l1.969 1.965-0.113 0.109c-0.19-0.051-0.39-0.051-0.58 0s-0.364 0.15-0.503 0.289c-0.197 0.195-0.312 0.458-0.323 0.735-0.279 0.012-0.544 0.129-0.741 0.328s-0.311 0.465-0.32 0.744c-0.277 0.007-0.541 0.12-0.739 0.315s-0.313 0.458-0.323 0.735c-0.277 0.014-0.54 0.129-0.739 0.323zM11.822 17.445c-0.072 0.068-0.167 0.105-0.266 0.105s-0.194-0.038-0.266-0.105l-0.529-0.532c-0.039-0.034-0.071-0.075-0.094-0.122s-0.035-0.097-0.037-0.149c-0.002-0.052 0.007-0.103 0.026-0.151s0.047-0.092 0.084-0.128c0.037-0.037 0.080-0.065 0.128-0.084s0.1-0.028 0.151-0.026 0.102 0.015 0.149 0.037c0.047 0.023 0.088 0.054 0.122 0.094l0.533 0.529c0.070 0.071 0.11 0.167 0.11 0.266s-0.039 0.195-0.11 0.266zM12.883 16.384c-0.071 0.070-0.167 0.11-0.266 0.11s-0.195-0.039-0.266-0.11l-0.529-0.532c-0.070-0.070-0.109-0.165-0.109-0.264s0.039-0.194 0.109-0.264c0.070-0.070 0.165-0.109 0.264-0.109s0.194 0.039 0.264 0.109l0.533 0.529c0.070 0.071 0.109 0.167 0.109 0.266s-0.039 0.195-0.109 0.266zM13.941 15.322c-0.071 0.069-0.166 0.107-0.264 0.107s-0.193-0.038-0.264-0.107l-0.529-0.533c-0.036-0.034-0.064-0.074-0.083-0.12s-0.029-0.094-0.029-0.143c0.001-0.099 0.040-0.194 0.111-0.264s0.165-0.11 0.264-0.111c0.099 0 0.195 0.039 0.266 0.109l0.529 0.532c0.070 0.070 0.109 0.165 0.109 0.264s-0.039 0.194-0.109 0.264zM15.002 14.261c-0.070 0.070-0.165 0.109-0.264 0.109s-0.194-0.039-0.264-0.109l-0.533-0.529c-0.070-0.071-0.11-0.167-0.11-0.266s0.039-0.195 0.11-0.266c0.072-0.069 0.167-0.108 0.266-0.109 0.099 0 0.195 0.039 0.266 0.109l0.529 0.533c0.036 0.034 0.064 0.075 0.083 0.121s0.029 0.094 0.029 0.144c0 0.049-0.010 0.098-0.029 0.144s-0.048 0.086-0.083 0.121zM11.953 8.561l0.532-0.533 3.18 3.184-0.529 0.529-3.184-3.18z"></path>
<path d="M8.177 20.25h3.75v0.75h-3.75v-0.75z"></path>
<path d="M3.302 16.5h3v0.75h-3v-0.75z"></path>
<path d="M3.302 18h3.75v0.75h-3.75v-0.75z"></path>
<path d="M3.302 15h2.25v0.75h-2.25v-0.75z"></path>
</svg>
