<svg xmlns="http://www.w3.org/2000/svg" width="24" height="24"><path d="M21.874 7.442c.234-.335.372-.741.372-1.179v-.611a.469.469 0 00.308-.44v-.145c0-1.307-1.063-2.371-2.371-2.371s-2.371 1.063-2.371 2.371v.145a.47.47 0 00.308.44v.611c0 .438.138.845.372 1.179a2.698 2.698 0 00-2.147 2.475h-2.724a.469.469 0 00-.469.469v2.906H11.25v-2.906a.469.469 0 00-.469-.469H7.406a.469.469 0 00-.469.469v2.906H5.249V7.038l3.267-3.267 2.181 2.181c.174.174.381.294.602.361v.792l-.98.98a.468.468 0 00-.137.331v.866a.469.469 0 00.938 0v-.671l.648-.648.648.648v.601a.469.469 0 00.938 0v-.795a.466.466 0 00-.137-.331l-.98-.98v-.825a1.437 1.437 0 00.93-1.351c0-.387-.151-.749-.424-1.023L9.341.505 9.338.503a1.727 1.727 0 00-2.436.004l-4.15 4.15a2.099 2.099 0 00-1.694 2.057v2.428a.469.469 0 00.938 0V8.46c.332.221.73.35 1.158.35s.826-.129 1.158-.35v5.002a1.892 1.892 0 00-.066.029 3.118 3.118 0 00-2.251.026v-.907a.469.469 0 00-.938 0v1.491a3.12 3.12 0 00-1.032 2.32v7.111c0 .259.21.469.469.469h21.375c.259 0 .469-.21.469-.469v-7.819a1.814 1.814 0 001.687-1.807v-3.822a2.7 2.7 0 00-2.153-2.64zm-1.716-.055a1.127 1.127 0 01-1.1-1.124v-.582h2.25v.582c0 .612-.491 1.111-1.1 1.124h-.051zm1.421-2.645h-.928V3.711c.461.16.816.549.928 1.031zm-1.865-1.03v1.031h-.928c.112-.481.467-.87.928-1.031zm-.328 10.517c.646 0 1.172.526 1.172 1.172s-.526 1.172-1.172 1.172H5.136c-.646 0-1.172-.526-1.172-1.172s.526-1.172 1.172-1.172h14.25zm-.422 3.281h.422c.112 0 .221-.009.328-.026v5.576h-.75v-5.551zM3.051 15.724c.067.432.266.821.553 1.125a.656.656 0 11-.553-1.124zm11.038-4.87h2.437v2.438h-2.437v-2.438zm-6.214 0h2.438v2.438H7.875v-2.438zM6.91 2.936c.197.197.434.34.693.423L5.079 5.883a2.111 2.111 0 00-1.121-1.107L6.49 2.245c.081.253.221.491.421.691zm5.32 1.992a.51.51 0 01-.869.36L9.18 3.107l.163-.163a1.72 1.72 0 00.423-.691l2.315 2.315a.506.506 0 01.149.36zM8.68 1.167a.786.786 0 01.038 1.073.38.38 0 00-.037.033.784.784 0 11-1.088-1.13.788.788 0 011.087.024zM3.154 7.869a1.159 1.159 0 11.001-2.315 1.159 1.159 0 01-.001 2.315zm-2.19 8.55a2.193 2.193 0 012.411-2.179 2.084 2.084 0 00-.255.539 1.595 1.595 0 00-1.56 1.593 1.596 1.596 0 002.833 1.003c.231.087.482.136.743.136h.209v5.551H.964V16.42zm17.063 6.642H6.283V19.76h5.486a.469.469 0 000-.938H6.283V17.51h11.744v5.551zm2.625 0v-5.974c.351-.264.617-.635.75-1.064v7.038h-.75zm2.437-9.157c0 .44-.327.804-.75.864v-3.985a.469.469 0 00-.938 0v3.996a2.113 2.113 0 00-2.016-1.487h-.422v-2.509a.469.469 0 00-.938 0v2.509h-.562v-2.906a.468.468 0 00-.186-.373 1.759 1.759 0 011.755-1.688h1.124l.025.001.025-.001h1.124c.969 0 1.757.788 1.757 1.757v3.822z"/><path d="M1.528 11.483a.469.469 0 10-.002-.937.469.469 0 00.002.937zm1.627-5.241a.47.47 0 00-.468.468.47.47 0 00.468.468c.123 0 .244-.05.331-.137a.472.472 0 000-.662.472.472 0 00-.331-.137zm4.64-4.192c.088.087.208.137.331.137s.244-.05.332-.137a.472.472 0 000-.662.47.47 0 00-.8.331c0 .123.05.244.137.331zm1.7 12.882a.472.472 0 00-.331.137.472.472 0 000 .662.468.468 0 10.331-.799zm-3 0a.472.472 0 00-.331.137.472.472 0 000 .662.472.472 0 00.662 0 .472.472 0 000-.662.472.472 0 00-.331-.137zm12 .937c.123 0 .244-.05.331-.137a.472.472 0 000-.662.472.472 0 00-.662 0 .472.472 0 000 .662.472.472 0 00.331.137zm-6-.937a.472.472 0 00-.331.137.472.472 0 000 .662.468.468 0 10.331-.799zm3 0a.472.472 0 00-.331.137.472.472 0 000 .662.468.468 0 10.331-.799zm-1.926 4.828c.123 0 .244-.05.331-.137a.472.472 0 000-.662.472.472 0 00-.662 0 .472.472 0 000 .662.472.472 0 00.331.137z"/></svg>