<svg xmlns="http://www.w3.org/2000/svg" width="24" height="24"><path d="M9.139 15.831h-.318l.225-.233a1.55 1.55 0 000-2.136l-.005-.005a1.425 1.425 0 00-2.058.005l-.225.232v-.329c0-.833-.655-1.51-1.459-1.51s-1.459.678-1.459 1.51v.329l-.225-.232c-.569-.589-1.495-.589-2.063 0s-.569 1.547 0 2.136l.224.232h-.317C.655 15.83 0 16.508 0 17.34s.655 1.51 1.459 1.51h.317l-.225.232a1.55 1.55 0 000 2.136l.006.007c.569.582 1.49.58 2.057-.006l.224-.232v.329c0 .833.655 1.51 1.459 1.51s1.459-.678 1.459-1.51v-.329l.225.232c.569.589 1.495.589 2.063 0s.569-1.547 0-2.136l-.225-.232h.318c.804 0 1.459-.678 1.459-1.511s-.654-1.51-1.459-1.51zm0 2.031h-.854a.478.478 0 00-.454.341 2.742 2.742 0 01-.153.382.508.508 0 00.088.573l.604.625c.196.203.196.534 0 .737s-.516.203-.712 0l-.604-.625a.467.467 0 00-.554-.092 2.626 2.626 0 01-.37.159.494.494 0 00-.329.47v.884c0 .287-.226.521-.503.521s-.503-.234-.503-.521v-.884a.494.494 0 00-.329-.47 2.561 2.561 0 01-.37-.159.463.463 0 00-.554.092l-.604.625a.492.492 0 01-.712 0l-.004-.004a.534.534 0 01.004-.733l.604-.626a.506.506 0 00.088-.573 2.818 2.818 0 01-.153-.382.48.48 0 00-.454-.34h-.854c-.278 0-.503-.234-.503-.521s.226-.521.503-.521h.854a.48.48 0 00.454-.34c.042-.131.093-.26.153-.383a.508.508 0 00-.088-.573l-.604-.625c-.196-.203-.196-.534 0-.737s.516-.203.712 0l.604.625a.467.467 0 00.554.092 2.56 2.56 0 01.369-.158.494.494 0 00.329-.47v-.884c0-.287.226-.521.503-.521s.503.234.503.521v.884c0 .214.133.403.329.47.127.043.251.096.37.159.184.096.408.06.554-.092l.604-.625a.492.492 0 01.712 0l.003.003a.536.536 0 01-.003.734l-.604.625a.506.506 0 00-.088.573c.06.123.111.251.153.383a.48.48 0 00.454.34h.854c.277 0 .503.234.503.521s-.226.521-.503.521zm10.877-4.708a.486.486 0 01-.478-.495V6.976a.404.404 0 00-.397-.411h-.875c-.264 0-.478-.221-.478-.495s.214-.495.478-.495h.875c.746 0 1.353.628 1.353 1.4v5.683a.487.487 0 01-.478.495zM5.299 15.706c-.871 0-1.58.734-1.58 1.635s.709 1.635 1.58 1.635c.871 0 1.58-.734 1.58-1.635s-.709-1.635-1.58-1.635zm0 2.281c-.344 0-.624-.29-.624-.646s.28-.646.624-.646.624.29.624.646c0 .356-.28.646-.624.646zM15.823.408h-3.034a.486.486 0 00-.478.495V21.72c0 .273.214.495.478.495h3.034a.486.486 0 00.478-.495V.903a.487.487 0 00-.478-.495zm-.478 20.817h-2.078v-2.48h.644c.264 0 .478-.221.478-.495s-.214-.495-.478-.495h-.644v-2.48h.644c.264 0 .478-.221.478-.495s-.214-.495-.478-.495h-.644v-2.48h.644c.264 0 .478-.221.478-.495s-.214-.495-.478-.495h-.644v-2.48h.644c.264 0 .478-.221.478-.495s-.214-.495-.478-.495h-.644v-2.48h.644c.264 0 .478-.221.478-.495s-.214-.495-.478-.495h-.644v-2.48h2.078v19.827zM24 2.416v17.79a.487.487 0 01-.478.495h-2.769c-.264 0-.478-.221-.478-.495s.214-.495.478-.495h2.291v-16.8h-4.998c-.264 0-.478-.221-.478-.495s.214-.495.478-.495h5.476c.264 0 .478.222.478.495zm-5.256 21.41v.088c0 .273-.214.495-.478.495s-.478-.221-.478-.495v-.088c0-.273.214-.495.478-.495s.478.221.478.495zm0-15.948v14.345c0 .273-.214.495-.478.495s-.478-.221-.478-.495V7.878c0-.273.214-.495.478-.495s.478.221.478.495zm-8.026-5.956l-4.253.001a.462.462 0 00-.28.114l-.001.001-.001.001c-.001.001 0 0 0 0l-.001.001-4.307 4.456a.503.503 0 00-.14.33v4.152c0 .273.214.495.478.495s.478-.221.478-.495V7.341h3.8a.486.486 0 00.478-.495V2.912h3.75c.264 0 .478-.221.478-.495s-.214-.495-.478-.495zM6.012 6.35H3.366l2.646-2.74v2.74z"/></svg>