<svg xmlns="http://www.w3.org/2000/svg" width="24" height="24"><path d="M22.886 0H5.202a.38.38 0 000 .758h17.684c.348 0 .632.283.632.632v12.253h-2.147a.38.38 0 000 .758h2.147v3.663a.632.632 0 01-.316.547.38.38 0 00.379.656c.428-.248.694-.709.694-1.203V1.39a1.39 1.39 0 00-1.39-1.389z"/><path d="M19.981 16.547c0 .766.623 1.389 1.389 1.389s1.389-.623 1.389-1.389-.623-1.389-1.389-1.389-1.389.623-1.389 1.389zm1.389-.631a.633.633 0 11-.001 1.265.633.633 0 01.001-1.265zM8.612 19.074a.38.38 0 00-.379-.379H1.665a.633.633 0 01-.632-.632V14.4h9.221a.38.38 0 000-.758H1.033V1.389c0-.348.283-.632.632-.632h2.021a.38.38 0 000-.758H1.665A1.39 1.39 0 00.276 1.388v16.674a1.39 1.39 0 001.389 1.389h6.568a.38.38 0 00.379-.379z"/><path d="M21.555 18.784l-3.342-1.003v-1.185a3.412 3.412 0 001.907-2.562l.421-2.738a1.095 1.095 0 00.384-1.795l-.738-.738-.522-1.565a2.397 2.397 0 00-2.037-1.629.886.886 0 00-.804-.517h-2.021a.883.883 0 00-.804.517 2.397 2.397 0 00-2.037 1.629l-.522 1.565-.738.738a1.096 1.096 0 00.384 1.795l.421 2.738a3.412 3.412 0 001.907 2.562v1.185l-3.342 1.003a2.385 2.385 0 00-1.71 2.299v2.033c0 .488.397.884.884.884h9.095a.38.38 0 000-.758h-5.937v-1.137a.38.38 0 00-.758 0v1.137h-2.4a.126.126 0 01-.126-.126v-2.033c0-.731.47-1.363 1.17-1.573l3.559-1.068h3.931l3.559 1.068c.7.21 1.17.842 1.17 1.573v2.033c0 .07-.057.126-.126.126h-2.4v-1.137a.38.38 0 00-.758 0v1.516c0 .209.17.379.379.379h2.779a.885.885 0 00.884-.884v-2.033a2.385 2.385 0 00-1.71-2.299zM11.474 10.61a.337.337 0 01-.238-.573l.801-.801a.381.381 0 00.092-.148l.55-1.65a1.64 1.64 0 011.238-1.092v1.611a.38.38 0 00.758 0V5.936c0-.07.057-.126.126-.126h2.021c.07 0 .126.057.126.126v2.021a.38.38 0 00.758 0V6.346a1.639 1.639 0 011.238 1.092l.55 1.65c.019.056.05.107.092.148l.801.801a.336.336 0 01-.238.573h-8.676zm5.275 6.316c.239 0 .475-.025.706-.074v.832h-3.284v-.832c.231.049.467.074.706.074h.431a.38.38 0 000-.758h-.431a2.639 2.639 0 01-2.622-2.249l-.392-2.551h7.9l-.392 2.551a2.639 2.639 0 01-2.622 2.249.38.38 0 000 .758zM3.181 15.158c-.766 0-1.389.623-1.389 1.389s.623 1.389 1.389 1.389h3.537c.766 0 1.389-.623 1.389-1.389s-.623-1.389-1.389-1.389H3.181zm4.168 1.389a.633.633 0 01-.632.632H3.18a.633.633 0 010-1.264h3.537c.348 0 .632.283.632.632z"/><path d="M7.476 2.021H3.939a.633.633 0 00-.632.632v1.516c0 .348.283.632.632.632h1.389v.903l-1.672.836a.629.629 0 00-.349.565v.193c0 .241.134.457.349.565l1.672.836v.903H3.939a.633.633 0 00-.632.632v1.516c0 .348.283.632.632.632h3.537a.633.633 0 00.632-.632v-.379h1.137a.38.38 0 000-.758H8.108v-.379a.633.633 0 00-.632-.632H6.087v-.903l1.672-.836a.629.629 0 00.349-.565v-.193a.629.629 0 00-.349-.565l-1.672-.836v-.903h1.39a.633.633 0 00.632-.632V3.79h12.379v3.663a.38.38 0 00.758 0V3.411a.38.38 0 00-.379-.379H8.109v-.379a.633.633 0 00-.632-.632zm-.127 8.337v1.263H4.065v-1.263h3.284zm0-3.176v.037l-1.642.821-1.642-.821v-.037l1.642-.821 1.642.821zm0-3.14H4.065V2.779h3.284v1.263zm1.516 12.505c0 .766.623 1.389 1.389 1.389s1.389-.623 1.389-1.389-.623-1.389-1.389-1.389-1.389.623-1.389 1.389zm2.021 0a.633.633 0 11-1.265-.001.633.633 0 011.265.001z"/></svg>