<svg xmlns="http://www.w3.org/2000/svg" width="24" height="24"><path d="M19.5 24H3.75a1.5 1.5 0 01-1.5-1.5v-18A1.5 1.5 0 013.75 3v18a1.5 1.5 0 001.5 1.5h3a1.5 1.5 0 001.5-1.5V3h9.75A1.5 1.5 0 0121 4.5v18a1.5 1.5 0 01-1.5 1.5zm-3.75-2.25h1.5v-1.5h-1.5v1.5zm0-2.25h1.5V18h-1.5v1.5zm0-2.25h1.5v-1.5h-1.5v1.5zm0-2.25h1.5v-1.5h-1.5V15zm-2.25 6.75H15v-1.5h-1.5v1.5zm0-2.25H15V18h-1.5v1.5zm0-2.25H15v-1.5h-1.5v1.5zm0-2.25H15v-1.5h-1.5V15zm6-9.75a.749.749 0 00-.75-.75H12a.75.75 0 00-.75.75v3c0 .414.336.75.75.75h6.75a.75.75 0 00.75-.75v-3zm0 8.25H18V15h1.5v-1.5zm0 2.25H18v1.5h1.5v-1.5zm0 2.25H18v1.5h1.5V18zm0 2.25H18v1.5h1.5v-1.5zm-11.25 1.5h-3A.75.75 0 014.5 21V2.25a.75.75 0 01.75-.75h1.454V0H7.5v1.5h.75a.75.75 0 01.75.75V21a.75.75 0 01-.75.75z"/></svg>