<svg xmlns="http://www.w3.org/2000/svg" width="24" height="24"><path d="M20.86 5.918a2.998 2.998 0 001.416-2.543c0-1.654-1.346-3-3-3s-3 1.346-3 3c0 1.072.568 2.013 1.416 2.543a4.503 4.503 0 00-2.916 4.207v1.5h-1.5v-4.5h-6v4.5h-4.5v4.5c-1.241 0-2.25 1.009-2.25 2.25s1.009 2.25 2.25 2.25v3h12.75v-3c.41 0 .794-.112 1.125-.304v1.804c0 .827.673 1.5 1.5 1.5.45 0 .85-.203 1.125-.518a1.49 1.49 0 001.125.518c.827 0 1.5-.673 1.5-1.5v-7.5h.375c.827 0 1.5-.673 1.5-1.5v-3a4.504 4.504 0 00-2.916-4.207zm-1.584.457c.254 0 .503.026.743.075a.746.746 0 01-1.485 0c.24-.049.488-.075.742-.075zm-2.25-3c0-1.241 1.009-2.25 2.25-2.25s2.25 1.009 2.25 2.25-1.009 2.25-2.25 2.25-2.25-1.009-2.25-2.25zm-.375 13.054a2.236 2.236 0 00-1.125-.304v-1.708c.222.129.476.208.75.208h.375v1.804zm-1.875-3.304v3h-.75v-1.5h-3v1.5h-.75v-3.75h.75v1.5h3v-1.5h.75v.75zM13.651 19.5c-.62 0-1.125-.505-1.125-1.125s.505-1.125 1.125-1.125 1.125.505 1.125 1.125-.505 1.125-1.125 1.125zm-1.875-1.125c0 .615.302 1.158.762 1.5h-1.523c.459-.342.762-.885.762-1.5s-.302-1.158-.762-1.5h1.523a1.87 1.87 0 00-.762 1.5zm-5.25-2.25h-1.5v-.75h1.5v.75zM4.651 17.25c.62 0 1.125.505 1.125 1.125S5.271 19.5 4.651 19.5s-1.125-.505-1.125-1.125.505-1.125 1.125-1.125zm1.875 1.125c0-.615-.302-1.158-.762-1.5h3.023c-.459.342-.762.885-.762 1.5s.302 1.158.762 1.5H5.764a1.87 1.87 0 00.762-1.5zm5.25-6h1.5v.75h-1.5v-.75zm-.75-.75h-1.5v-.75h1.5v.75zm-1.5.75v3.75h-.75v-3.75h.75zm.375 7.125c-.62 0-1.125-.505-1.125-1.125s.505-1.125 1.125-1.125 1.125.505 1.125 1.125-.505 1.125-1.125 1.125zm3.375-3.375h-1.5v-.75h1.5v.75zm-3.75-8.25h1.5v.75h-1.5v-.75zm-1.5 0h.75v1.5h3v-1.5h.75v3.75h-.75v-1.5h-3v1.5h-.75v-3.75zm-3 4.5h1.5v.75h-1.5v-.75zm-1.5 0h.75v1.5h3v-1.5h.75v3.75h-.75v-1.5h-3v1.5h-.75v-3.75zm-2.25 6c0-.827.673-1.5 1.5-1.5h.762c-.459.342-.762.885-.762 1.5s.302 1.158.762 1.5h-.762c-.827 0-1.5-.673-1.5-1.5zm13.5 4.5H3.526v-2.25h11.25v2.25zm.75-3h-.762c.459-.342.762-.885.762-1.5s-.302-1.158-.762-1.5h.762c.827 0 1.5.673 1.5 1.5s-.673 1.5-1.5 1.5zm7.5-6.75a.75.75 0 01-.75.75h-.375v-5.25h-.75v13.5a.75.75 0 01-1.5 0V12.75h-.75v9.375a.75.75 0 01-1.5 0v-2.509c.237-.356.375-.783.375-1.241s-.138-.885-.375-1.241V8.625h-.75v5.25h-.375a.75.75 0 01-.75-.75v-3c0-1.546.941-2.877 2.28-3.449a1.5 1.5 0 002.94 0 3.755 3.755 0 012.28 3.449v3z"/><path d="M13.651 18.75a.375.375 0 100-.75.375.375 0 000 .75zm-3.75 0a.375.375 0 100-.75.375.375 0 000 .75zm-5.25 0a.375.375 0 100-.75.375.375 0 000 .75zM6.526 4.875h-6v5.25h6v-5.25zm-3.75.75h1.5v.75h-1.5v-.75zm1.5 3.75h-1.5v-.75h1.5v.75zm1.5 0h-.75v-1.5h-3v1.5h-.75v-3.75h.75v1.5h3v-1.5h.75v3.75z"/></svg>