<svg xmlns="http://www.w3.org/2000/svg" width="24" height="24"><path d="M17.552 21.375a1.123 1.123 0 01-1.125 1.125h-13.5a1.123 1.123 0 01-1.125-1.125V2.625A1.123 1.123 0 012.927 1.5h11.625v1.875A1.126 1.126 0 0015.677 4.5h1.875v7.875h.75v-8.25a.376.376 0 00-.11-.265l-3-3a.376.376 0 00-.265-.11h-12a1.876 1.876 0 00-1.875 1.875v18.75a1.876 1.876 0 001.875 1.875h13.5a1.876 1.876 0 001.875-1.875v-1.5h-.75v1.5zm-2.25-18V2.03l1.72 1.72h-1.345a.376.376 0 01-.375-.375z"/><path d="M3.302 3h.75v.75h-.75V3zm1.5 0h2.25v.75h-2.25V3zm-1.5 1.5h3.75v.75h-3.75V4.5zm19.826 6.424a1.878 1.878 0 00-2.652 0l-6.629 6.629a.372.372 0 00-.102.191l-.243 1.215-.715.715a1.125 1.125 0 101.591 1.591l.715-.715 1.215-.243a.374.374 0 00.191-.103l6.629-6.629a1.878 1.878 0 000-2.652zm-8.873 8.097l.177-.884 1.484 1.484-.884.177-.777-.777zm.653-1.468l4.508-4.508.531.53-4.508 4.508-.531-.53zm1.061 1.06l4.508-4.508.53.531-4.508 4.508-.53-.53zm3.978-6.099l.265-.265 1.591 1.591-.266.265-1.591-1.591zm-6.1 8.221a.383.383 0 01-.53 0 .394.394 0 01-.11-.266.374.374 0 01.11-.266l.53-.53.531.531-.531.53zm8.751-7.69l-.265.265-1.591-1.591.265-.265a1.14 1.14 0 01.796-.33 1.12 1.12 0 01.796.33 1.12 1.12 0 010 1.592zm-6.137-1.566a.376.376 0 000-.532l-3.712-3.713a.387.387 0 00-.528 0l-.982.983-.574.112L9.57 7.234a.39.39 0 00-.266-.109H7.868l-.949-.952a.376.376 0 00-.532 0L2.674 9.885a.376.376 0 000 .532l2.7 2.7a1.11 1.11 0 00.046 1.059 1.109 1.109 0 00.911.542 1.11 1.11 0 001.057 1.061 1.12 1.12 0 001.061 1.061 1.12 1.12 0 001.355 1.037c.212-.045.407-.15.561-.303l.397.397a1.138 1.138 0 00.795.33 1.111 1.111 0 00.795-.33c.198-.196.313-.46.323-.739a1.1 1.1 0 001.061-1.057 1.112 1.112 0 001.061-1.061 1.127 1.127 0 00.994-.717 1.126 1.126 0 00-.255-1.199l-.397-.397 1.324-1.324zM3.467 10.151l3.184-3.18.529.529L4 10.684l-.532-.532zm1.061 1.061l3.337-3.338h1.283l2.936 2.94a.374.374 0 010 .53.379.379 0 01-.528 0l-1.59-1.59a.386.386 0 00-.532 0 1.15 1.15 0 01-1.59 0l-.529.529c.136.134.292.246.461.334l-1.92 1.924-1.327-1.327zm5.7 4.639a1.127 1.127 0 00-.285 1.084l-.113.109a.375.375 0 01-.409.082.342.342 0 01-.12-.082.372.372 0 01-.004-.525l.003-.001.001-.003 1.061-1.057v-.004l-.533-.529-1.061 1.061c-.004 0-.004 0-.004.004a.383.383 0 01-.525-.004.38.38 0 010-.532L9.3 14.393l-.529-.529-1.061 1.061a.375.375 0 01-.614-.122.378.378 0 010-.288.375.375 0 01.082-.122l1.061-1.058-.529-.532-1.061 1.061a.384.384 0 01-.532 0 .373.373 0 010-.528l2.501-2.505c.008 0 .011.004.019.004.368.001.729-.107 1.035-.311l1.354 1.354a1.153 1.153 0 001.59 0 1.124 1.124 0 00.022-1.567l1.969 1.965-.113.109a1.118 1.118 0 00-1.406 1.024 1.11 1.11 0 00-1.061 1.072 1.093 1.093 0 00-1.062 1.05c-.277.014-.54.129-.739.323zm1.594 1.594a.386.386 0 01-.532 0l-.529-.532a.368.368 0 01-.105-.422.375.375 0 01.634-.107l.533.529a.376.376 0 010 .532zm1.061-1.061a.376.376 0 01-.532 0l-.529-.532a.373.373 0 01.528-.528l.533.529a.38.38 0 010 .532zm1.058-1.062a.379.379 0 01-.528 0l-.529-.533a.373.373 0 01.263-.638.38.38 0 01.266.109l.529.532a.373.373 0 010 .528zm1.061-1.061a.373.373 0 01-.528 0l-.533-.529a.376.376 0 01.532-.532l.529.533a.374.374 0 010 .53zm-3.049-5.7l.532-.533 3.18 3.184-.529.529-3.184-3.18zM8.177 20.25h3.75V21h-3.75v-.75zM3.302 16.5h3v.75h-3v-.75zm0 1.5h3.75v.75h-3.75V18zm0-3h2.25v.75h-2.25V15z"/></svg>